<svg xmlns="http://www.w3.org/2000/svg" xmlns:xlink="http://www.w3.org/1999/xlink" width="150" zoomAndPan="magnify" viewBox="0 0 112.5 112.499997" height="150" preserveAspectRatio="xMidYMid meet" version="1.0"><defs><clipPath id="f6d8d7d029"><path d="M 11.199219 9 L 100.800781 9 L 100.800781 103.019531 L 11.199219 103.019531 Z M 11.199219 9 " clip-rule="nonzero"/></clipPath></defs><g clip-path="url(#f6d8d7d029)"><path fill="#000000" d="M 100.816406 58.238281 C 100.816406 55.730469 98.851562 53.675781 96.382812 53.519531 C 95.617188 46.941406 93.253906 40.65625 89.484375 35.199219 L 99.316406 23.476562 C 99.675781 23.050781 99.769531 22.464844 99.566406 21.949219 C 99.363281 21.433594 98.894531 21.070312 98.34375 21 L 92.828125 20.308594 L 93.933594 18.988281 C 94.589844 18.210938 94.898438 17.21875 94.808594 16.195312 C 94.71875 15.175781 94.242188 14.25 93.460938 13.597656 C 92.679688 12.941406 91.683594 12.632812 90.664062 12.722656 C 89.644531 12.8125 88.722656 13.289062 88.066406 14.070312 L 86.957031 15.394531 L 85.316406 10.085938 C 85.152344 9.554688 84.710938 9.15625 84.167969 9.046875 C 83.621094 8.9375 83.0625 9.132812 82.703125 9.558594 L 72.875 21.273438 C 69.023438 19.515625 64.949219 18.378906 60.730469 17.894531 C 60.578125 15.425781 58.519531 13.460938 56.011719 13.460938 C 53.5 13.460938 51.441406 15.425781 51.289062 17.894531 C 42.238281 18.945312 33.753906 23.039062 27.273438 29.515625 C 20.789062 35.996094 16.691406 44.472656 15.640625 53.519531 C 13.171875 53.671875 11.207031 55.730469 11.207031 58.238281 C 11.207031 60.746094 13.167969 62.804688 15.640625 62.957031 C 16.691406 72.003906 20.789062 80.480469 27.273438 86.960938 C 33.753906 93.4375 42.238281 97.53125 51.289062 98.582031 C 51.441406 101.050781 53.5 103.015625 56.011719 103.015625 C 58.519531 103.015625 60.578125 101.050781 60.730469 98.582031 C 69.785156 97.53125 78.269531 93.4375 84.75 86.960938 C 91.230469 80.480469 95.328125 72.003906 96.378906 62.957031 C 98.851562 62.804688 100.816406 60.746094 100.816406 58.238281 Z M 93.324219 53.511719 L 82.25 53.511719 C 81.378906 48.695312 79.164062 44.15625 75.894531 40.492188 L 77.789062 38.234375 L 85.25 39.167969 C 85.3125 39.175781 85.375 39.179688 85.4375 39.179688 C 85.882812 39.179688 86.3125 38.980469 86.601562 38.636719 L 87.457031 37.617188 C 90.605469 42.398438 92.609375 47.832031 93.324219 53.511719 Z M 79.179688 62.851562 C 77.332031 72.210938 69.992188 79.542969 60.628906 81.394531 C 60.160156 79.277344 58.265625 77.691406 56.011719 77.691406 C 53.753906 77.691406 51.863281 79.277344 51.394531 81.394531 C 42.027344 79.542969 34.691406 72.210938 32.839844 62.851562 C 34.957031 62.382812 36.546875 60.492188 36.546875 58.238281 C 36.546875 55.984375 34.957031 54.09375 32.839844 53.625 C 34.691406 44.265625 42.027344 36.933594 51.394531 35.082031 C 51.863281 37.199219 53.753906 38.785156 56.011719 38.785156 C 58.269531 38.785156 60.160156 37.199219 60.628906 35.082031 C 63.238281 35.601562 65.761719 36.566406 68.054688 37.925781 L 60.3125 47.15625 C 58.945312 46.628906 57.480469 46.347656 56.011719 46.347656 C 49.449219 46.347656 44.113281 51.683594 44.113281 58.238281 C 44.113281 64.792969 49.449219 70.128906 56.011719 70.128906 C 62.570312 70.128906 67.90625 64.792969 67.90625 58.238281 C 67.90625 56.03125 67.3125 53.925781 66.183594 52.070312 L 73.917969 42.847656 C 76.566406 45.925781 78.386719 49.660156 79.179688 53.625 C 77.0625 54.09375 75.472656 55.984375 75.472656 58.238281 C 75.472656 60.492188 77.0625 62.382812 79.179688 62.851562 Z M 55.035156 59.398438 C 55.730469 59.980469 56.589844 60.292969 57.488281 60.292969 C 57.601562 60.292969 57.714844 60.285156 57.832031 60.277344 C 58.851562 60.1875 59.773438 59.707031 60.429688 58.925781 L 64.082031 54.574219 C 64.601562 55.714844 64.875 56.953125 64.875 58.238281 C 64.875 63.121094 60.898438 67.097656 56.011719 67.097656 C 51.125 67.097656 47.148438 63.121094 47.148438 58.238281 C 47.148438 53.355469 51.125 49.382812 56.011719 49.382812 C 56.765625 49.382812 57.5 49.476562 58.214844 49.65625 L 54.5625 54.007812 C 53.207031 55.625 53.417969 58.042969 55.035156 59.398438 Z M 95.203125 23.664062 L 84.808594 36.054688 L 80.109375 35.46875 L 90.507812 23.074219 Z M 90.390625 16.019531 C 90.574219 15.804688 90.808594 15.753906 90.929688 15.742188 C 90.953125 15.738281 90.976562 15.738281 91.003906 15.738281 C 91.132812 15.738281 91.332031 15.769531 91.511719 15.921875 C 91.726562 16.101562 91.777344 16.335938 91.785156 16.460938 C 91.796875 16.585938 91.789062 16.828125 91.609375 17.039062 L 58.105469 56.976562 C 57.921875 57.195312 57.6875 57.246094 57.566406 57.257812 C 57.441406 57.265625 57.203125 57.257812 56.984375 57.078125 C 56.65625 56.800781 56.609375 56.289062 56.886719 55.957031 Z M 83.238281 13.640625 L 84.636719 18.15625 L 74.242188 30.550781 L 72.84375 26.03125 Z M 69.699219 26.136719 L 71.921875 33.316406 L 70.027344 35.574219 C 67.1875 33.820312 64.023438 32.609375 60.742188 32.015625 L 60.742188 20.949219 C 64.234375 21.386719 67.621094 22.304688 70.847656 23.691406 L 69.988281 24.714844 C 69.65625 25.109375 69.550781 25.644531 69.699219 26.136719 Z M 54.3125 18.1875 C 54.3125 17.253906 55.074219 16.492188 56.011719 16.492188 C 56.945312 16.492188 57.707031 17.253906 57.707031 18.1875 L 57.707031 34.058594 C 57.707031 34.996094 56.945312 35.753906 56.011719 35.753906 C 55.074219 35.753906 54.3125 34.996094 54.3125 34.058594 Z M 51.28125 20.949219 L 51.28125 32.015625 C 40.324219 33.972656 31.730469 42.5625 29.769531 53.511719 L 18.695312 53.511719 C 20.824219 36.421875 34.179688 23.074219 51.28125 20.949219 Z M 14.238281 58.238281 C 14.238281 57.304688 15 56.542969 15.9375 56.542969 L 31.816406 56.542969 C 32.75 56.542969 33.511719 57.304688 33.511719 58.238281 C 33.511719 59.171875 32.75 59.933594 31.816406 59.933594 L 15.9375 59.933594 C 15 59.933594 14.238281 59.171875 14.238281 58.238281 Z M 18.695312 62.964844 L 29.769531 62.964844 C 31.730469 73.917969 40.324219 82.503906 51.28125 84.460938 L 51.28125 95.53125 C 34.179688 93.402344 20.824219 80.054688 18.695312 62.964844 Z M 57.707031 98.289062 C 57.707031 99.222656 56.945312 99.984375 56.011719 99.984375 C 55.074219 99.984375 54.3125 99.222656 54.3125 98.289062 L 54.3125 82.417969 C 54.3125 81.480469 55.074219 80.722656 56.011719 80.722656 C 56.945312 80.722656 57.707031 81.484375 57.707031 82.417969 Z M 60.742188 95.53125 L 60.742188 84.460938 C 71.699219 82.503906 80.292969 73.917969 82.25 62.964844 L 93.324219 62.964844 C 91.195312 80.054688 77.839844 93.402344 60.742188 95.53125 Z M 96.085938 59.933594 L 80.203125 59.933594 C 79.269531 59.933594 78.507812 59.171875 78.507812 58.238281 C 78.507812 57.304688 79.269531 56.542969 80.203125 56.542969 L 96.085938 56.542969 C 97.019531 56.542969 97.78125 57.304688 97.78125 58.238281 C 97.78125 59.171875 97.019531 59.933594 96.085938 59.933594 Z M 96.085938 59.933594 " fill-opacity="1" fill-rule="nonzero"/></g></svg>