<svg xmlns="http://www.w3.org/2000/svg" xmlns:xlink="http://www.w3.org/1999/xlink" width="150" zoomAndPan="magnify" viewBox="0 0 112.5 112.499997" height="150" preserveAspectRatio="xMidYMid meet" version="1.0"><defs><clipPath id="9984ce1618"><path d="M 14.15625 14.261719 L 97.785156 14.261719 L 97.785156 97.890625 L 14.15625 97.890625 Z M 14.15625 14.261719 " clip-rule="nonzero"/></clipPath></defs><g clip-path="url(#9984ce1618)"><path fill="#000000" d="M 36.886719 36.914062 C 36.703125 35.855469 36.613281 34.773438 36.613281 33.675781 C 36.613281 22.972656 45.300781 14.261719 55.980469 14.261719 C 66.65625 14.261719 75.347656 22.972656 75.347656 33.675781 C 75.347656 34.757812 75.253906 35.855469 75.074219 36.914062 C 74.945312 37.648438 74.324219 38.160156 73.613281 38.160156 C 73.539062 38.160156 73.449219 38.160156 73.355469 38.140625 C 72.554688 38.011719 72.007812 37.226562 72.132812 36.421875 C 72.28125 35.523438 72.351562 34.609375 72.351562 33.675781 C 72.351562 24.617188 64.996094 17.242188 55.960938 17.242188 C 46.925781 17.242188 39.570312 24.617188 39.570312 33.675781 C 39.570312 34.589844 39.640625 35.523438 39.789062 36.421875 C 39.917969 37.226562 39.386719 38.011719 38.566406 38.140625 C 37.761719 38.269531 37.015625 37.71875 36.886719 36.914062 Z M 97.507812 62.753906 C 97.269531 63.523438 96.757812 64.144531 96.0625 64.527344 L 88.195312 68.773438 C 87.757812 69.011719 87.265625 69.140625 86.792969 69.140625 C 86.5 69.140625 86.207031 69.105469 85.933594 69.011719 C 85.496094 68.882812 85.128906 68.648438 84.800781 68.355469 L 81.972656 71.390625 C 83.558594 73.460938 83.488281 75.601562 82.683594 77.191406 C 81.898438 78.710938 80.476562 79.808594 78.960938 80.25 C 79.289062 81.785156 78.851562 83.378906 77.644531 84.605469 C 76.585938 85.683594 75.054688 86.359375 73.375 86.25 C 73.300781 87.257812 72.84375 88.171875 72.1875 88.886719 C 71.019531 90.128906 69.160156 90.824219 67.261719 90.605469 C 67.207031 91.722656 66.730469 92.765625 65.835938 93.589844 C 64.796875 94.578125 63.246094 95.164062 61.566406 95.164062 C 60.78125 95.164062 59.976562 95.015625 59.171875 94.742188 C 58.992188 94.996094 58.808594 95.253906 58.570312 95.472656 L 57.605469 96.441406 C 56.636719 97.414062 55.378906 97.890625 54.097656 97.890625 C 52.839844 97.890625 51.5625 97.414062 50.59375 96.441406 C 49.9375 95.785156 49.519531 94.980469 49.316406 94.136719 C 48.824219 94.285156 48.332031 94.394531 47.839844 94.394531 C 46.578125 94.394531 45.300781 93.917969 44.332031 92.949219 C 43.566406 92.179688 43.109375 91.210938 42.964844 90.222656 C 42.671875 90.277344 42.378906 90.3125 42.070312 90.3125 C 40.8125 90.3125 39.53125 89.835938 38.566406 88.867188 C 37.6875 87.988281 37.234375 86.835938 37.140625 85.683594 C 37.050781 85.683594 36.960938 85.703125 36.867188 85.703125 C 35.535156 85.703125 34.292969 85.1875 33.363281 84.257812 C 31.554688 82.445312 31.464844 79.589844 33.035156 77.632812 L 26.699219 68.683594 C 26.480469 68.828125 26.246094 68.957031 25.96875 69.03125 C 25.679688 69.121094 25.40625 69.160156 25.113281 69.160156 C 24.621094 69.160156 24.144531 69.03125 23.707031 68.792969 L 15.875 64.527344 C 15.183594 64.144531 14.671875 63.523438 14.433594 62.753906 C 14.195312 61.984375 14.289062 61.179688 14.671875 60.484375 L 26.007812 39.367188 C 26.390625 38.671875 27.011719 38.160156 27.777344 37.921875 C 28.542969 37.683594 29.347656 37.777344 30.042969 38.160156 L 37.910156 42.40625 C 38.601562 42.789062 39.113281 43.410156 39.351562 44.179688 C 39.585938 44.949219 39.496094 45.753906 39.113281 46.449219 L 39.023438 46.613281 C 40.226562 47.472656 41.066406 47.839844 42.472656 47.675781 C 44.71875 47.363281 52.363281 46.46875 55.652344 47.875 C 55.761719 47.929688 55.851562 47.988281 55.960938 48.042969 C 56.089844 47.96875 56.199219 47.894531 56.34375 47.839844 C 59.667969 46.429688 67.332031 47.328125 69.597656 47.640625 C 70.929688 47.785156 71.769531 47.457031 72.917969 46.632812 L 72.808594 46.449219 C 72.425781 45.753906 72.351562 44.929688 72.570312 44.179688 C 72.808594 43.410156 73.320312 42.789062 74.015625 42.40625 L 81.882812 38.160156 C 82.574219 37.777344 83.378906 37.703125 84.144531 37.921875 C 84.910156 38.160156 85.53125 38.671875 85.914062 39.367188 L 97.25 60.484375 C 97.652344 61.199219 97.742188 62.003906 97.507812 62.753906 Z M 57.550781 50.585938 C 54.097656 52.175781 52.128906 58.050781 50.320312 64.695312 C 51.925781 65.1875 53.148438 65.222656 54.136719 64.804688 C 55.722656 64.109375 57.09375 62.113281 58.589844 58.289062 L 59.246094 56.625 L 79.472656 69.160156 C 79.582031 69.230469 79.671875 69.304688 79.78125 69.378906 L 83.175781 65.71875 L 74.34375 49.265625 C 72.972656 50.199219 71.441406 50.839844 69.230469 50.585938 C 63.078125 49.761719 58.9375 49.980469 57.550781 50.585938 Z M 25.148438 66.15625 L 36.484375 45.039062 L 28.617188 40.792969 L 17.28125 61.894531 Z M 38.308594 82.113281 L 38.566406 81.859375 C 38.582031 81.839844 38.582031 81.839844 38.601562 81.820312 L 40.171875 80.25 C 40.921875 79.480469 40.921875 78.234375 40.152344 77.46875 C 39.386719 76.699219 38.128906 76.699219 37.359375 77.46875 L 35.515625 79.316406 C 34.75 80.082031 34.75 81.347656 35.515625 82.113281 C 36.265625 82.863281 37.5625 82.863281 38.308594 82.113281 Z M 43.492188 86.726562 L 47.015625 83.195312 C 47.785156 82.425781 47.785156 81.164062 47.015625 80.394531 C 46.632812 80.011719 46.121094 79.808594 45.628906 79.808594 C 45.136719 79.808594 44.625 80.011719 44.242188 80.394531 L 42.289062 82.335938 C 42.269531 82.351562 42.269531 82.351562 42.253906 82.371094 L 40.683594 83.945312 C 39.933594 84.714844 39.933594 85.957031 40.699219 86.726562 C 41.46875 87.496094 42.726562 87.496094 43.492188 86.726562 Z M 49.261719 90.824219 L 50.523438 89.5625 C 50.558594 89.527344 50.59375 89.472656 50.632812 89.417969 L 51.160156 88.886719 C 51.855469 88.117188 51.855469 86.910156 51.105469 86.160156 C 50.339844 85.390625 49.078125 85.390625 48.3125 86.160156 L 46.46875 88.007812 C 45.703125 88.777344 45.703125 90.039062 46.46875 90.808594 C 47.234375 91.59375 48.496094 91.59375 49.261719 90.824219 Z M 56.5625 93.242188 C 56.546875 93.222656 56.507812 93.203125 56.492188 93.1875 L 56.929688 92.671875 C 57.203125 91.960938 57.054688 91.136719 56.492188 90.550781 C 56.125 90.183594 55.632812 89.984375 55.101562 89.984375 C 54.574219 89.984375 54.082031 90.183594 53.714844 90.550781 L 53.332031 90.933594 C 53.296875 90.972656 53.257812 91.027344 53.222656 91.0625 L 52.695312 91.59375 C 51.980469 92.363281 52 93.570312 52.75 94.320312 C 53.515625 95.089844 54.773438 95.089844 55.542969 94.320312 L 56.507812 93.351562 C 56.527344 93.3125 56.546875 93.277344 56.5625 93.242188 Z M 77.882812 71.683594 L 60.671875 61.015625 C 59.0625 64.640625 57.421875 66.632812 55.304688 67.546875 C 53.3125 68.410156 50.976562 68.242188 47.964844 67.019531 L 46.742188 66.523438 L 47.070312 65.242188 C 48.695312 59.058594 50.355469 53.585938 53.167969 50.292969 C 51.195312 49.980469 47.636719 49.980469 42.820312 50.640625 C 40.519531 50.894531 38.984375 50.21875 37.578125 49.25 L 28.542969 66.066406 L 35.152344 75.398438 L 35.226562 75.324219 C 37.160156 73.386719 40.300781 73.386719 42.234375 75.324219 C 42.820312 75.910156 43.203125 76.589844 43.421875 77.320312 C 45.265625 76.40625 47.566406 76.699219 49.097656 78.253906 C 50.285156 79.441406 50.742188 81.109375 50.464844 82.664062 C 51.472656 82.828125 52.417969 83.269531 53.1875 84.035156 C 54.027344 84.878906 54.484375 85.957031 54.59375 87.074219 C 56.035156 86.945312 57.53125 87.386719 58.570312 88.429688 C 59.484375 89.34375 59.976562 90.550781 60.011719 91.851562 C 61.566406 92.417969 63.078125 92.050781 63.792969 91.375 C 64.613281 90.605469 64.25 89.617188 63.71875 88.886719 L 61.511719 87.292969 C 60.851562 86.816406 60.6875 85.882812 61.179688 85.207031 C 61.65625 84.53125 62.585938 84.382812 63.261719 84.878906 L 65.671875 86.617188 C 65.726562 86.652344 65.746094 86.707031 65.800781 86.746094 L 65.816406 86.726562 C 67.316406 88.097656 69.195312 87.660156 69.996094 86.800781 C 70.601562 86.160156 70.472656 85.425781 69.667969 84.640625 L 65.707031 81.839844 C 65.03125 81.363281 64.867188 80.429688 65.34375 79.753906 C 65.816406 79.078125 66.75 78.914062 67.425781 79.386719 L 71.511719 82.28125 C 71.550781 82.316406 71.566406 82.351562 71.605469 82.390625 L 71.621094 82.371094 C 73.101562 83.652344 74.671875 83.324219 75.492188 82.460938 C 75.785156 82.167969 76.640625 81.070312 75.417969 79.699219 L 75.347656 79.609375 L 70.035156 76.1875 C 69.339844 75.746094 69.140625 74.8125 69.597656 74.117188 C 70.035156 73.421875 70.964844 73.222656 71.660156 73.679688 L 77.410156 77.394531 C 78.25 77.484375 79.472656 76.84375 80.019531 75.785156 C 80.949219 74.027344 79.070312 72.453125 77.882812 71.683594 Z M 94.660156 61.894531 L 83.324219 40.777344 L 75.457031 45.023438 L 86.792969 66.140625 Z M 88.671875 62.441406 C 89.914062 62.441406 90.898438 61.4375 90.898438 60.210938 C 90.898438 58.964844 89.894531 57.976562 88.671875 57.976562 C 87.449219 57.976562 86.445312 58.984375 86.445312 60.210938 C 86.445312 61.4375 87.429688 62.441406 88.671875 62.441406 Z M 23.269531 57.960938 C 22.027344 57.960938 21.042969 58.964844 21.042969 60.191406 C 21.042969 61.4375 22.046875 62.425781 23.269531 62.425781 C 24.492188 62.425781 25.496094 61.417969 25.496094 60.191406 C 25.515625 58.964844 24.511719 57.960938 23.269531 57.960938 Z M 61.839844 37.410156 C 61.839844 34.535156 59.503906 32.175781 56.617188 32.175781 L 55.121094 32.175781 C 53.878906 32.175781 52.894531 31.167969 52.894531 29.941406 C 52.894531 28.699219 53.898438 27.710938 55.121094 27.710938 L 56.617188 27.710938 C 57.332031 27.710938 57.988281 28.039062 58.40625 28.605469 C 58.898438 29.265625 59.832031 29.394531 60.488281 28.898438 C 61.144531 28.40625 61.273438 27.472656 60.78125 26.8125 C 59.941406 25.699219 58.699219 25.003906 57.332031 24.820312 C 57.332031 24.78125 57.347656 24.765625 57.347656 24.726562 L 57.347656 23.226562 C 57.347656 22.402344 56.691406 21.726562 55.851562 21.726562 C 55.03125 21.726562 54.355469 22.402344 54.355469 23.226562 L 54.355469 24.726562 C 54.355469 24.746094 54.371094 24.78125 54.371094 24.800781 C 51.855469 25.167969 49.882812 27.328125 49.882812 29.960938 C 49.882812 32.835938 52.21875 35.195312 55.101562 35.195312 L 56.601562 35.195312 C 57.839844 35.195312 58.828125 36.203125 58.828125 37.425781 C 58.828125 38.652344 57.824219 39.660156 56.601562 39.660156 L 55.101562 39.660156 C 54.390625 39.660156 53.734375 39.332031 53.3125 38.761719 C 52.820312 38.105469 51.890625 37.976562 51.234375 38.472656 C 50.578125 38.964844 50.449219 39.898438 50.941406 40.558594 C 51.78125 41.691406 53.023438 42.367188 54.390625 42.570312 C 54.390625 42.605469 54.371094 42.625 54.371094 42.660156 L 54.371094 44.160156 C 54.371094 44.984375 55.03125 45.664062 55.871094 45.664062 C 56.691406 45.664062 57.367188 44.984375 57.367188 44.160156 L 57.367188 42.625 C 57.367188 42.605469 57.347656 42.570312 57.347656 42.550781 C 59.886719 42.203125 61.839844 40.042969 61.839844 37.410156 Z M 61.839844 37.410156 " fill-opacity="1" fill-rule="nonzero"/></g></svg>