<svg xmlns="http://www.w3.org/2000/svg" xmlns:xlink="http://www.w3.org/1999/xlink" width="150" zoomAndPan="magnify" viewBox="0 0 112.5 112.499997" height="150" preserveAspectRatio="xMidYMid meet" version="1.0"><defs><clipPath id="2bc2eb88c7"><path d="M 13.378906 24.089844 L 89 24.089844 L 89 87.558594 L 13.378906 87.558594 Z M 13.378906 24.089844 " clip-rule="nonzero"/></clipPath><clipPath id="9dad2e5a05"><path d="M 13.378906 36 L 50 36 L 50 40 L 13.378906 40 Z M 13.378906 36 " clip-rule="nonzero"/></clipPath><clipPath id="964ee74a27"><path d="M 60 56 L 100.738281 56 L 100.738281 87.558594 L 60 87.558594 Z M 60 56 " clip-rule="nonzero"/></clipPath></defs><g clip-path="url(#2bc2eb88c7)"><path fill="#212121" d="M 64.597656 87.558594 L 19.273438 87.558594 C 16.027344 87.558594 13.386719 84.929688 13.386719 81.699219 L 13.386719 29.941406 C 13.386719 29.9375 13.386719 29.933594 13.386719 29.925781 C 13.421875 26.71875 16.078125 24.109375 19.300781 24.109375 L 39.632812 24.109375 C 40.097656 24.109375 40.527344 24.34375 40.777344 24.726562 L 48.605469 36.691406 L 86.988281 36.691406 C 87.742188 36.691406 88.351562 37.300781 88.351562 38.050781 L 88.351562 57.785156 C 88.351562 58.535156 87.742188 59.140625 86.988281 59.140625 C 86.234375 59.140625 85.621094 58.535156 85.621094 57.785156 L 85.621094 39.410156 L 47.867188 39.410156 C 47.402344 39.410156 46.972656 39.179688 46.722656 38.792969 L 38.894531 26.828125 L 19.300781 26.828125 C 17.566406 26.828125 16.140625 28.226562 16.117188 29.949219 L 16.117188 81.699219 C 16.117188 83.433594 17.535156 84.839844 19.273438 84.839844 L 64.597656 84.839844 C 65.351562 84.839844 65.960938 85.449219 65.960938 86.199219 C 65.960938 86.949219 65.351562 87.558594 64.597656 87.558594 Z M 64.597656 87.558594 " fill-opacity="1" fill-rule="evenodd"/></g><g clip-path="url(#9dad2e5a05)"><path fill="#212121" d="M 47.863281 39.410156 L 14.78125 39.410156 C 14.027344 39.410156 13.414062 38.800781 13.414062 38.050781 C 13.414062 37.300781 14.027344 36.691406 14.78125 36.691406 L 47.863281 36.691406 C 48.617188 36.691406 49.230469 37.300781 49.230469 38.050781 C 49.230469 38.800781 48.621094 39.410156 47.863281 39.410156 Z M 47.863281 39.410156 " fill-opacity="1" fill-rule="evenodd"/></g><path fill="#212121" d="M 86.988281 39.410156 C 86.234375 39.410156 85.621094 38.800781 85.621094 38.050781 L 85.621094 31.667969 C 85.621094 30.082031 84.277344 28.742188 82.683594 28.742188 L 40.878906 28.742188 C 40.125 28.742188 39.515625 28.132812 39.515625 27.382812 C 39.515625 26.632812 40.125 26.023438 40.878906 26.023438 L 82.683594 26.023438 C 84.1875 26.023438 85.605469 26.613281 86.683594 27.683594 C 87.761719 28.753906 88.351562 30.167969 88.351562 31.667969 L 88.351562 38.050781 C 88.351562 38.800781 87.742188 39.410156 86.988281 39.410156 Z M 86.988281 39.410156 " fill-opacity="1" fill-rule="evenodd"/><path fill="#212121" d="M 21.574219 33.105469 L 20.277344 33.105469 C 19.523438 33.105469 18.910156 32.496094 18.910156 31.746094 C 18.910156 30.996094 19.523438 30.386719 20.277344 30.386719 L 21.574219 30.386719 C 22.328125 30.386719 22.941406 30.996094 22.941406 31.746094 C 22.941406 32.496094 22.328125 33.105469 21.574219 33.105469 Z M 21.574219 33.105469 " fill-opacity="1" fill-rule="evenodd"/><path fill="#212121" d="M 29.617188 33.105469 L 28.34375 33.105469 C 27.589844 33.105469 26.980469 32.496094 26.980469 31.746094 C 26.980469 30.996094 27.589844 30.386719 28.34375 30.386719 L 29.617188 30.386719 C 30.371094 30.386719 30.980469 30.996094 30.980469 31.746094 C 30.980469 32.496094 30.371094 33.105469 29.617188 33.105469 Z M 29.617188 33.105469 " fill-opacity="1" fill-rule="evenodd"/><path fill="#212121" d="M 37.65625 33.105469 L 36.386719 33.105469 C 35.632812 33.105469 35.019531 32.496094 35.019531 31.746094 C 35.019531 30.996094 35.632812 30.386719 36.386719 30.386719 L 37.65625 30.386719 C 38.410156 30.386719 39.023438 30.996094 39.023438 31.746094 C 39.023438 32.496094 38.414062 33.105469 37.65625 33.105469 Z M 37.65625 33.105469 " fill-opacity="1" fill-rule="evenodd"/><path fill="#212121" d="M 74.539062 34.074219 L 54.773438 34.074219 C 54.019531 34.074219 53.40625 33.46875 53.40625 32.71875 C 53.40625 31.964844 54.019531 31.359375 54.773438 31.359375 L 74.539062 31.359375 C 75.292969 31.359375 75.902344 31.964844 75.902344 32.71875 C 75.902344 33.46875 75.292969 34.074219 74.539062 34.074219 Z M 74.539062 34.074219 " fill-opacity="1" fill-rule="evenodd"/><path fill="#212121" d="M 61.503906 79.945312 L 25.03125 79.945312 C 24.277344 79.945312 23.667969 79.335938 23.667969 78.585938 L 23.667969 45.160156 C 23.667969 44.410156 24.277344 43.804688 25.03125 43.804688 L 76.707031 43.804688 C 77.460938 43.804688 78.074219 44.410156 78.074219 45.160156 L 78.074219 57.785156 C 78.074219 58.535156 77.460938 59.144531 76.707031 59.144531 C 75.953125 59.144531 75.34375 58.535156 75.34375 57.785156 L 75.34375 46.519531 L 26.398438 46.519531 L 26.398438 77.230469 L 61.503906 77.230469 C 62.257812 77.230469 62.867188 77.835938 62.867188 78.585938 C 62.867188 79.335938 62.257812 79.945312 61.503906 79.945312 Z M 61.503906 79.945312 " fill-opacity="1" fill-rule="evenodd"/><path fill="#212121" d="M 44.753906 64.609375 C 44.503906 64.609375 44.25 64.539062 44.03125 64.40625 C 43.632812 64.15625 43.386719 63.71875 43.386719 63.25 L 43.386719 51.316406 C 43.386719 50.847656 43.632812 50.414062 44.03125 50.164062 C 44.429688 49.917969 44.929688 49.890625 45.355469 50.097656 L 57.585938 56.066406 C 58.054688 56.292969 58.351562 56.765625 58.351562 57.285156 C 58.351562 57.804688 58.054688 58.277344 57.585938 58.503906 L 45.355469 64.472656 C 45.164062 64.5625 44.957031 64.609375 44.753906 64.609375 Z M 46.117188 53.496094 L 46.117188 61.074219 L 53.886719 57.285156 Z M 46.117188 53.496094 " fill-opacity="1" fill-rule="evenodd"/><path fill="#212121" d="M 61.503906 71.949219 L 32.203125 71.949219 C 31.449219 71.949219 30.835938 71.339844 30.835938 70.589844 C 30.835938 69.839844 31.449219 69.230469 32.203125 69.230469 L 61.503906 69.230469 C 62.257812 69.230469 62.867188 69.839844 62.867188 70.589844 C 62.867188 71.339844 62.257812 71.949219 61.503906 71.949219 Z M 61.503906 71.949219 " fill-opacity="1" fill-rule="evenodd"/><path fill="#212121" d="M 38.273438 73.789062 C 37.519531 73.789062 36.90625 73.183594 36.90625 72.429688 L 36.90625 68.746094 C 36.90625 67.996094 37.519531 67.386719 38.273438 67.386719 C 39.027344 67.386719 39.636719 67.996094 39.636719 68.746094 L 39.636719 72.429688 C 39.636719 73.183594 39.027344 73.789062 38.273438 73.789062 Z M 38.273438 73.789062 " fill-opacity="1" fill-rule="evenodd"/><g clip-path="url(#964ee74a27)"><path fill="#212121" d="M 96.300781 87.558594 L 64.597656 87.558594 C 62.136719 87.558594 60.136719 85.570312 60.136719 83.121094 L 60.136719 60.863281 C 60.136719 58.414062 62.136719 56.425781 64.597656 56.425781 L 96.300781 56.425781 C 98.757812 56.425781 100.757812 58.414062 100.757812 60.863281 L 100.757812 83.121094 C 100.757812 85.570312 98.757812 87.558594 96.300781 87.558594 Z M 64.597656 59.144531 C 63.644531 59.144531 62.867188 59.914062 62.867188 60.863281 L 62.867188 83.121094 C 62.867188 84.070312 63.644531 84.84375 64.597656 84.84375 L 96.300781 84.84375 C 97.253906 84.84375 98.027344 84.070312 98.027344 83.121094 L 98.027344 60.863281 C 98.027344 59.914062 97.253906 59.144531 96.300781 59.144531 Z M 64.597656 59.144531 " fill-opacity="1" fill-rule="evenodd"/></g><path fill="#212121" d="M 66.332031 78.597656 C 66.175781 78.597656 66.019531 78.570312 65.867188 78.515625 C 65.160156 78.261719 64.792969 77.484375 65.046875 76.777344 L 68.859375 66.238281 C 69.117188 65.53125 69.898438 65.164062 70.609375 65.417969 C 71.316406 65.671875 71.683594 66.453125 71.429688 67.15625 L 67.617188 77.699219 C 67.414062 78.253906 66.890625 78.597656 66.332031 78.597656 Z M 66.332031 78.597656 " fill-opacity="1" fill-rule="evenodd"/><path fill="#212121" d="M 73.960938 78.597656 C 73.398438 78.597656 72.875 78.253906 72.675781 77.699219 L 68.859375 67.15625 C 68.605469 66.453125 68.972656 65.671875 69.683594 65.417969 C 70.390625 65.164062 71.171875 65.53125 71.429688 66.238281 L 75.242188 76.777344 C 75.5 77.484375 75.132812 78.261719 74.421875 78.515625 C 74.269531 78.570312 74.113281 78.597656 73.960938 78.597656 Z M 73.960938 78.597656 " fill-opacity="1" fill-rule="evenodd"/><path fill="#212121" d="M 72.679688 74.914062 L 67.664062 74.914062 C 66.910156 74.914062 66.296875 74.304688 66.296875 73.554688 C 66.296875 72.804688 66.910156 72.199219 67.664062 72.199219 L 72.679688 72.199219 C 73.433594 72.199219 74.046875 72.804688 74.046875 73.554688 C 74.046875 74.304688 73.433594 74.914062 72.679688 74.914062 Z M 72.679688 74.914062 " fill-opacity="1" fill-rule="evenodd"/><path fill="#212121" d="M 81.023438 78.628906 L 77.914062 78.628906 C 77.160156 78.628906 76.546875 78.023438 76.546875 77.273438 L 76.546875 66.695312 C 76.546875 65.945312 77.160156 65.339844 77.914062 65.339844 L 81.023438 65.339844 C 83.492188 65.339844 85.503906 67.335938 85.503906 69.792969 L 85.503906 74.175781 C 85.503906 76.632812 83.492188 78.628906 81.023438 78.628906 Z M 79.277344 75.914062 L 81.023438 75.914062 C 81.988281 75.914062 82.773438 75.132812 82.773438 74.175781 L 82.773438 69.792969 C 82.773438 68.835938 81.988281 68.054688 81.023438 68.054688 L 79.277344 68.054688 Z M 79.277344 75.914062 " fill-opacity="1" fill-rule="evenodd"/><path fill="#212121" d="M 91.90625 78.644531 C 89.6875 78.644531 87.878906 76.847656 87.878906 74.640625 C 87.878906 73.890625 88.492188 73.28125 89.246094 73.28125 C 90 73.28125 90.609375 73.890625 90.609375 74.640625 C 90.609375 75.351562 91.191406 75.929688 91.90625 75.929688 C 92.621094 75.929688 93.199219 75.351562 93.199219 74.640625 C 93.199219 73.929688 92.621094 73.351562 91.90625 73.351562 C 89.6875 73.351562 87.878906 71.554688 87.878906 69.34375 C 87.878906 67.136719 89.6875 65.339844 91.90625 65.339844 C 94.125 65.339844 95.929688 67.136719 95.929688 69.34375 C 95.929688 70.09375 95.320312 70.703125 94.566406 70.703125 C 93.8125 70.703125 93.199219 70.09375 93.199219 69.34375 C 93.199219 68.632812 92.621094 68.054688 91.90625 68.054688 C 91.191406 68.054688 90.609375 68.632812 90.609375 69.34375 C 90.609375 70.054688 91.191406 70.632812 91.90625 70.632812 C 94.125 70.632812 95.929688 72.429688 95.929688 74.640625 C 95.929688 76.847656 94.125 78.644531 91.90625 78.644531 Z M 91.90625 78.644531 " fill-opacity="1" fill-rule="evenodd"/></svg>