<svg xmlns="http://www.w3.org/2000/svg" xmlns:xlink="http://www.w3.org/1999/xlink" width="150" zoomAndPan="magnify" viewBox="0 0 112.5 112.499997" height="150" preserveAspectRatio="xMidYMid meet" version="1.0"><defs><clipPath id="71a69c3b77"><path d="M 66 19.007812 L 73 19.007812 L 73 26 L 66 26 Z M 66 19.007812 " clip-rule="nonzero"/></clipPath><clipPath id="a84e68e626"><path d="M 22.960938 33 L 42 33 L 42 35 L 22.960938 35 Z M 22.960938 33 " clip-rule="nonzero"/></clipPath><clipPath id="5068375bae"><path d="M 22.960938 28 L 49 28 L 49 30 L 22.960938 30 Z M 22.960938 28 " clip-rule="nonzero"/></clipPath><clipPath id="257ef6abe1"><path d="M 22.960938 23 L 57 23 L 57 26 L 22.960938 26 Z M 22.960938 23 " clip-rule="nonzero"/></clipPath><clipPath id="2f5fd6bef4"><path d="M 22.960938 39 L 85 39 L 85 82 L 22.960938 82 Z M 22.960938 39 " clip-rule="nonzero"/></clipPath><clipPath id="b5e2e646a6"><path d="M 22.960938 72 L 85 72 L 85 75 L 22.960938 75 Z M 22.960938 72 " clip-rule="nonzero"/></clipPath><clipPath id="f2a01a66cd"><path d="M 42 80 L 66 80 L 66 92.929688 L 42 92.929688 Z M 42 80 " clip-rule="nonzero"/></clipPath><clipPath id="794fdc9729"><path d="M 87 27 L 100.613281 27 L 100.613281 43 L 87 43 Z M 87 27 " clip-rule="nonzero"/></clipPath></defs><path fill="#000000" d="M 76.992188 69.210938 L 30.726562 69.210938 C 30.242188 69.210938 29.851562 68.820312 29.851562 68.335938 C 29.851562 67.851562 30.242188 67.460938 30.726562 67.460938 L 76.992188 67.460938 C 77.472656 67.460938 77.863281 67.851562 77.863281 68.335938 C 77.863281 68.820312 77.472656 69.210938 76.992188 69.210938 Z M 76.992188 69.210938 " fill-opacity="1" fill-rule="nonzero"/><path fill="#000000" d="M 43.023438 69.210938 L 33.546875 69.210938 C 33.0625 69.210938 32.671875 68.820312 32.671875 68.335938 L 32.671875 47.761719 C 32.671875 46.53125 33.671875 45.53125 34.898438 45.53125 L 41.671875 45.53125 C 42.898438 45.53125 43.898438 46.53125 43.898438 47.761719 L 43.898438 68.335938 C 43.898438 68.820312 43.507812 69.210938 43.023438 69.210938 Z M 34.417969 67.460938 L 42.152344 67.460938 L 42.152344 47.761719 C 42.152344 47.503906 41.929688 47.28125 41.671875 47.28125 L 34.898438 47.28125 C 34.640625 47.28125 34.417969 47.503906 34.417969 47.761719 Z M 34.417969 67.460938 " fill-opacity="1" fill-rule="nonzero"/><path fill="#000000" d="M 58.597656 69.210938 L 49.117188 69.210938 C 48.636719 69.210938 48.246094 68.820312 48.246094 68.335938 L 48.246094 39.417969 C 48.246094 38.175781 49.253906 37.167969 50.492188 37.167969 L 57.226562 37.167969 C 58.464844 37.167969 59.472656 38.179688 59.472656 39.417969 L 59.472656 68.335938 C 59.472656 68.820312 59.082031 69.210938 58.597656 69.210938 Z M 49.992188 67.460938 L 57.726562 67.460938 L 57.726562 39.417969 C 57.726562 39.148438 57.496094 38.917969 57.226562 38.917969 L 50.492188 38.917969 C 50.222656 38.917969 49.996094 39.148438 49.996094 39.417969 L 49.996094 67.460938 Z M 49.992188 67.460938 " fill-opacity="1" fill-rule="nonzero"/><path fill="#000000" d="M 74.171875 69.210938 L 64.691406 69.210938 C 64.210938 69.210938 63.816406 68.820312 63.816406 68.335938 L 63.816406 29.921875 C 63.816406 28.679688 64.824219 27.671875 66.0625 27.671875 L 72.800781 27.671875 C 74.039062 27.671875 75.046875 28.683594 75.046875 29.921875 L 75.046875 68.335938 C 75.046875 68.820312 74.65625 69.210938 74.171875 69.210938 Z M 65.566406 67.460938 L 73.300781 67.460938 L 73.300781 29.921875 C 73.300781 29.652344 73.070312 29.425781 72.800781 29.425781 L 66.066406 29.425781 C 65.796875 29.425781 65.566406 29.652344 65.566406 29.921875 Z M 65.566406 67.460938 " fill-opacity="1" fill-rule="nonzero"/><path fill="#000000" d="M 38.285156 42.941406 C 36.621094 42.941406 35.265625 41.585938 35.265625 39.917969 C 35.265625 38.253906 36.621094 36.894531 38.285156 36.894531 C 39.949219 36.894531 41.304688 38.253906 41.304688 39.917969 C 41.304688 41.585938 39.949219 42.941406 38.285156 42.941406 Z M 38.285156 38.644531 C 37.585938 38.644531 37.015625 39.21875 37.015625 39.917969 C 37.015625 40.621094 37.585938 41.191406 38.285156 41.191406 C 38.988281 41.191406 39.554688 40.621094 39.554688 39.917969 C 39.554688 39.21875 38.984375 38.644531 38.285156 38.644531 Z M 38.285156 38.644531 " fill-opacity="1" fill-rule="nonzero"/><path fill="#000000" d="M 53.859375 34.578125 C 52.195312 34.578125 50.839844 33.222656 50.839844 31.554688 C 50.839844 29.886719 52.195312 28.53125 53.859375 28.53125 C 55.523438 28.53125 56.878906 29.886719 56.878906 31.554688 C 56.878906 33.222656 55.523438 34.578125 53.859375 34.578125 Z M 53.859375 30.28125 C 53.15625 30.28125 52.589844 30.851562 52.589844 31.554688 C 52.589844 32.257812 53.15625 32.828125 53.859375 32.828125 C 54.558594 32.828125 55.128906 32.257812 55.128906 31.554688 C 55.128906 30.851562 54.558594 30.28125 53.859375 30.28125 Z M 53.859375 30.28125 " fill-opacity="1" fill-rule="nonzero"/><g clip-path="url(#71a69c3b77)"><path fill="#000000" d="M 69.429688 25.082031 C 67.769531 25.082031 66.414062 23.726562 66.414062 22.058594 C 66.414062 20.390625 67.769531 19.035156 69.429688 19.035156 C 71.09375 19.035156 72.449219 20.390625 72.449219 22.058594 C 72.449219 23.726562 71.097656 25.082031 69.429688 25.082031 Z M 69.429688 20.789062 C 68.730469 20.789062 68.160156 21.359375 68.160156 22.0625 C 68.160156 22.761719 68.730469 23.332031 69.429688 23.332031 C 70.132812 23.332031 70.703125 22.761719 70.703125 22.0625 C 70.703125 21.359375 70.132812 20.789062 69.429688 20.789062 Z M 69.429688 20.789062 " fill-opacity="1" fill-rule="nonzero"/></g><path fill="#000000" d="M 40.175781 39.777344 C 39.863281 39.777344 39.5625 39.609375 39.402344 39.316406 C 39.175781 38.890625 39.335938 38.359375 39.761719 38.132812 L 51.554688 31.796875 C 51.980469 31.570312 52.507812 31.730469 52.738281 32.15625 C 52.96875 32.582031 52.804688 33.109375 52.382812 33.339844 L 40.585938 39.671875 C 40.457031 39.746094 40.316406 39.777344 40.175781 39.777344 Z M 55.691406 31.3125 C 55.398438 31.3125 55.109375 31.164062 54.945312 30.894531 C 54.691406 30.480469 54.824219 29.941406 55.234375 29.691406 L 67.144531 22.429688 C 67.558594 22.175781 68.09375 22.308594 68.347656 22.71875 C 68.597656 23.132812 68.464844 23.671875 68.054688 23.921875 L 56.144531 31.183594 C 56.003906 31.273438 55.847656 31.3125 55.691406 31.3125 Z M 55.691406 31.3125 " fill-opacity="1" fill-rule="nonzero"/><g clip-path="url(#a84e68e626)"><path fill="#000000" d="M 40.980469 34.960938 L 23.824219 34.960938 C 23.34375 34.960938 22.953125 34.570312 22.953125 34.085938 C 22.953125 33.601562 23.34375 33.210938 23.824219 33.210938 L 40.980469 33.210938 C 41.460938 33.210938 41.851562 33.601562 41.851562 34.085938 C 41.851562 34.570312 41.464844 34.960938 40.980469 34.960938 Z M 40.980469 34.960938 " fill-opacity="1" fill-rule="nonzero"/></g><g clip-path="url(#5068375bae)"><path fill="#000000" d="M 47.648438 29.988281 L 23.824219 29.988281 C 23.34375 29.988281 22.953125 29.59375 22.953125 29.113281 C 22.953125 28.628906 23.34375 28.238281 23.824219 28.238281 L 47.648438 28.238281 C 48.132812 28.238281 48.523438 28.628906 48.523438 29.113281 C 48.523438 29.59375 48.132812 29.988281 47.648438 29.988281 Z M 47.648438 29.988281 " fill-opacity="1" fill-rule="nonzero"/></g><g clip-path="url(#257ef6abe1)"><path fill="#000000" d="M 56 25.015625 L 23.824219 25.015625 C 23.34375 25.015625 22.953125 24.621094 22.953125 24.140625 C 22.953125 23.65625 23.34375 23.261719 23.824219 23.261719 L 56 23.261719 C 56.480469 23.261719 56.875 23.65625 56.875 24.140625 C 56.875 24.621094 56.480469 25.015625 56 25.015625 Z M 56 25.015625 " fill-opacity="1" fill-rule="nonzero"/></g><g clip-path="url(#2f5fd6bef4)"><path fill="#000000" d="M 80.214844 81.875 L 27.5 81.875 C 24.992188 81.875 22.953125 79.828125 22.953125 77.316406 L 22.953125 44.417969 C 22.953125 41.90625 24.992188 39.863281 27.5 39.863281 L 36.304688 39.863281 C 36.785156 39.863281 37.175781 40.253906 37.175781 40.738281 C 37.175781 41.222656 36.785156 41.613281 36.304688 41.613281 L 27.5 41.613281 C 25.957031 41.613281 24.699219 42.871094 24.699219 44.417969 L 24.699219 77.320312 C 24.699219 78.867188 25.957031 80.125 27.5 80.125 L 80.21875 80.125 C 81.761719 80.125 83.019531 78.867188 83.019531 77.320312 L 83.019531 48.738281 C 83.019531 48.253906 83.410156 47.863281 83.894531 47.863281 C 84.375 47.863281 84.765625 48.253906 84.765625 48.738281 L 84.765625 77.316406 C 84.765625 79.832031 82.722656 81.875 80.214844 81.875 Z M 77.769531 41.613281 L 74.171875 41.613281 C 73.6875 41.613281 73.296875 41.222656 73.296875 40.738281 C 73.296875 40.253906 73.6875 39.863281 74.171875 39.863281 L 77.769531 39.863281 C 78.253906 39.863281 78.644531 40.253906 78.644531 40.738281 C 78.644531 41.222656 78.253906 41.613281 77.769531 41.613281 Z M 64.695312 41.613281 L 58.597656 41.613281 C 58.117188 41.613281 57.726562 41.222656 57.726562 40.738281 C 57.726562 40.253906 58.117188 39.863281 58.597656 39.863281 L 64.695312 39.863281 C 65.175781 39.863281 65.570312 40.253906 65.570312 40.738281 C 65.570312 41.222656 65.175781 41.613281 64.695312 41.613281 Z M 49.117188 41.613281 L 40.269531 41.613281 C 39.785156 41.613281 39.394531 41.222656 39.394531 40.738281 C 39.394531 40.253906 39.785156 39.863281 40.269531 39.863281 L 49.117188 39.863281 C 49.601562 39.863281 49.992188 40.253906 49.992188 40.738281 C 49.992188 41.222656 49.601562 41.613281 49.117188 41.613281 Z M 49.117188 41.613281 " fill-opacity="1" fill-rule="nonzero"/></g><g clip-path="url(#b5e2e646a6)"><path fill="#000000" d="M 83.890625 74.28125 L 23.824219 74.28125 C 23.34375 74.28125 22.953125 73.890625 22.953125 73.40625 C 22.953125 72.921875 23.34375 72.53125 23.824219 72.53125 L 83.890625 72.53125 C 84.375 72.53125 84.765625 72.921875 84.765625 73.40625 C 84.765625 73.890625 84.375 74.28125 83.890625 74.28125 Z M 83.890625 74.28125 " fill-opacity="1" fill-rule="nonzero"/></g><g clip-path="url(#f2a01a66cd)"><path fill="#000000" d="M 64.632812 92.917969 L 43.085938 92.917969 C 42.769531 92.917969 42.480469 92.746094 42.324219 92.472656 C 42.167969 92.199219 42.175781 91.863281 42.335938 91.589844 L 48.949219 80.546875 C 49.199219 80.132812 49.734375 79.996094 50.148438 80.246094 C 50.5625 80.496094 50.699219 81.035156 50.449219 81.449219 L 44.628906 91.167969 L 63.085938 91.167969 L 57.265625 81.449219 C 57.015625 81.035156 57.152344 80.496094 57.5625 80.246094 C 57.976562 80 58.515625 80.132812 58.761719 80.546875 L 65.378906 91.589844 C 65.539062 91.859375 65.542969 92.199219 65.390625 92.472656 C 65.238281 92.75 64.945312 92.917969 64.632812 92.917969 Z M 64.632812 92.917969 " fill-opacity="1" fill-rule="nonzero"/></g><path fill="#000000" d="M 58.566406 78.078125 L 49.148438 78.078125 C 48.667969 78.078125 48.277344 77.6875 48.277344 77.203125 C 48.277344 76.71875 48.667969 76.328125 49.148438 76.328125 L 58.566406 76.328125 C 59.050781 76.328125 59.441406 76.71875 59.441406 77.203125 C 59.441406 77.6875 59.050781 78.078125 58.566406 78.078125 Z M 58.566406 78.078125 " fill-opacity="1" fill-rule="nonzero"/><path fill="#000000" d="M 88.488281 50.625 C 84.429688 50.625 80.480469 48.515625 78.308594 44.75 C 75.074219 39.136719 77 31.9375 82.601562 28.699219 C 84.230469 27.757812 86 27.230469 87.863281 27.136719 C 88.144531 27.121094 88.414062 27.242188 88.585938 27.460938 C 88.765625 27.675781 88.824219 27.964844 88.75 28.238281 L 85.4375 40.628906 L 97.808594 43.949219 C 98.078125 44.019531 98.296875 44.21875 98.394531 44.480469 C 98.496094 44.738281 98.464844 45.035156 98.3125 45.269531 C 97.300781 46.835938 95.960938 48.113281 94.335938 49.050781 C 92.492188 50.117188 90.480469 50.625 88.488281 50.625 Z M 86.734375 29.019531 C 85.59375 29.222656 84.5 29.621094 83.476562 30.214844 C 78.707031 32.96875 77.070312 39.097656 79.820312 43.875 C 82.574219 48.652344 88.695312 50.292969 93.460938 47.535156 C 94.484375 46.941406 95.378906 46.195312 96.121094 45.308594 L 84.140625 42.089844 C 83.917969 42.03125 83.726562 41.886719 83.609375 41.683594 C 83.492188 41.480469 83.460938 41.242188 83.523438 41.019531 Z M 86.734375 29.019531 " fill-opacity="1" fill-rule="nonzero"/><g clip-path="url(#794fdc9729)"><path fill="#000000" d="M 98.957031 42.566406 C 98.882812 42.566406 98.808594 42.554688 98.734375 42.535156 L 88.246094 39.722656 C 88.019531 39.660156 87.832031 39.515625 87.714844 39.3125 C 87.597656 39.113281 87.566406 38.875 87.625 38.648438 L 90.4375 28.144531 C 90.5625 27.675781 91.042969 27.398438 91.507812 27.523438 C 94.535156 28.335938 97.0625 30.28125 98.628906 33 C 100.199219 35.71875 100.613281 38.886719 99.804688 41.917969 C 99.742188 42.140625 99.597656 42.332031 99.394531 42.449219 C 99.261719 42.527344 99.109375 42.566406 98.957031 42.566406 Z M 89.539062 38.253906 L 98.304688 40.609375 C 98.714844 38.292969 98.304688 35.933594 97.117188 33.875 C 95.933594 31.816406 94.09375 30.277344 91.890625 29.476562 Z M 89.539062 38.253906 " fill-opacity="1" fill-rule="nonzero"/></g></svg>