<svg xmlns="http://www.w3.org/2000/svg" xmlns:xlink="http://www.w3.org/1999/xlink" width="150" zoomAndPan="magnify" viewBox="0 0 112.5 112.499997" height="150" preserveAspectRatio="xMidYMid meet" version="1.0"><defs><clipPath id="860030016b"><path d="M 50 22.019531 L 61 22.019531 L 61 33 L 50 33 Z M 50 22.019531 " clip-rule="nonzero"/></clipPath><clipPath id="829ba572fc"><path d="M 38 55 L 74 55 L 74 89.96875 L 38 89.96875 Z M 38 55 " clip-rule="nonzero"/></clipPath><clipPath id="9498e11772"><path d="M 9.691406 70 L 28 70 L 28 83 L 9.691406 83 Z M 9.691406 70 " clip-rule="nonzero"/></clipPath><clipPath id="ef46a8f8ea"><path d="M 84 70 L 102.28125 70 L 102.28125 83 L 84 83 Z M 84 70 " clip-rule="nonzero"/></clipPath></defs><path fill="#000000" d="M 51.140625 43.707031 L 60.683594 43.707031 C 62.851562 43.707031 64.585938 42.042969 64.585938 40.09375 L 64.585938 36.117188 C 64.585938 34.382812 63.71875 32.792969 62.273438 31.851562 C 61.695312 32.648438 60.898438 33.371094 60.03125 33.875 C 60.972656 34.308594 61.695312 35.105469 61.695312 36.117188 L 61.695312 40.09375 C 61.695312 40.527344 61.261719 40.816406 60.683594 40.816406 L 51.140625 40.816406 C 50.636719 40.816406 50.128906 40.453125 50.128906 40.09375 L 50.128906 36.117188 C 50.128906 35.105469 50.78125 34.308594 51.792969 33.875 C 50.925781 33.371094 50.203125 32.648438 49.550781 31.851562 C 48.179688 32.863281 47.238281 34.382812 47.238281 36.117188 L 47.238281 40.09375 C 47.238281 42.042969 48.972656 43.707031 51.140625 43.707031 Z M 51.140625 43.707031 " fill-opacity="1" fill-rule="nonzero"/><g clip-path="url(#860030016b)"><path fill="#000000" d="M 55.914062 32.140625 C 58.730469 32.140625 60.972656 29.898438 60.972656 27.082031 C 60.972656 24.261719 58.730469 22.019531 55.914062 22.019531 C 53.09375 22.019531 50.851562 24.261719 50.851562 27.082031 C 50.851562 29.898438 53.09375 32.140625 55.914062 32.140625 Z M 55.914062 24.914062 C 57.140625 24.914062 58.082031 25.851562 58.082031 27.082031 C 58.082031 28.308594 57.140625 29.25 55.914062 29.25 C 54.683594 29.25 53.746094 28.308594 53.746094 27.082031 C 53.746094 25.851562 54.683594 24.914062 55.914062 24.914062 Z M 55.914062 24.914062 " fill-opacity="1" fill-rule="nonzero"/></g><path fill="#000000" d="M 62.273438 70.8125 C 61.695312 71.609375 60.898438 72.332031 60.03125 72.835938 C 60.972656 73.269531 61.695312 74.066406 61.695312 75.078125 L 61.695312 79.125 C 61.695312 79.558594 61.261719 79.847656 60.683594 79.847656 L 51.140625 79.847656 C 50.636719 79.847656 50.128906 79.488281 50.128906 79.125 L 50.128906 75.152344 C 50.128906 74.136719 50.78125 73.34375 51.792969 72.910156 C 50.925781 72.402344 50.203125 71.679688 49.550781 70.886719 C 48.179688 71.898438 47.238281 73.414062 47.238281 75.152344 L 47.238281 79.125 C 47.238281 81.148438 48.972656 82.742188 51.140625 82.742188 L 60.683594 82.742188 C 62.851562 82.742188 64.585938 81.078125 64.585938 79.125 L 64.585938 75.152344 C 64.585938 73.34375 63.648438 71.824219 62.273438 70.8125 Z M 62.273438 70.8125 " fill-opacity="1" fill-rule="nonzero"/><path fill="#000000" d="M 55.914062 71.175781 C 58.730469 71.175781 60.972656 68.933594 60.972656 66.113281 C 60.972656 63.296875 58.730469 61.054688 55.914062 61.054688 C 53.09375 61.054688 50.851562 63.296875 50.851562 66.113281 C 50.851562 68.933594 53.09375 71.175781 55.914062 71.175781 Z M 55.914062 63.945312 C 57.140625 63.945312 58.082031 64.886719 58.082031 66.113281 C 58.082031 67.34375 57.140625 68.285156 55.914062 68.285156 C 54.683594 68.285156 53.746094 67.34375 53.746094 66.113281 C 53.746094 64.886719 54.683594 63.945312 55.914062 63.945312 Z M 55.914062 63.945312 " fill-opacity="1" fill-rule="nonzero"/><g clip-path="url(#829ba572fc)"><path fill="#000000" d="M 55.914062 55.273438 C 46.371094 55.273438 38.566406 63.078125 38.566406 72.621094 C 38.566406 82.164062 46.371094 89.96875 55.914062 89.96875 C 65.453125 89.96875 73.261719 82.164062 73.261719 72.621094 C 73.261719 63.078125 65.453125 55.273438 55.914062 55.273438 Z M 55.914062 87.078125 C 47.960938 87.078125 41.457031 80.570312 41.457031 72.621094 C 41.457031 64.667969 47.960938 58.164062 55.914062 58.164062 C 63.863281 58.164062 70.367188 64.667969 70.367188 72.621094 C 70.367188 80.570312 63.863281 87.078125 55.914062 87.078125 Z M 55.914062 87.078125 " fill-opacity="1" fill-rule="nonzero"/></g><path fill="#000000" d="M 54.539062 48.042969 L 54.539062 50.933594 C 54.539062 51.730469 55.191406 52.378906 55.984375 52.378906 C 56.78125 52.378906 57.429688 51.730469 57.429688 50.933594 L 57.429688 48.042969 C 57.429688 47.25 56.78125 46.597656 55.984375 46.597656 C 55.191406 46.597656 54.539062 47.25 54.539062 48.042969 Z M 54.539062 48.042969 " fill-opacity="1" fill-rule="nonzero"/><path fill="#000000" d="M 41.023438 58.019531 C 42.324219 58.019531 42.976562 56.429688 42.035156 55.5625 L 39.503906 53.25 C 38.925781 52.671875 37.988281 52.742188 37.480469 53.320312 C 36.902344 53.898438 36.976562 54.839844 37.554688 55.34375 C 37.554688 55.34375 40.082031 57.65625 40.082031 57.65625 C 40.300781 57.875 40.660156 58.019531 41.023438 58.019531 Z M 41.023438 58.019531 " fill-opacity="1" fill-rule="nonzero"/><path fill="#000000" d="M 34.230469 71.898438 L 31.339844 71.898438 C 30.542969 71.898438 29.890625 72.546875 29.890625 73.34375 C 29.890625 74.136719 30.542969 74.789062 31.339844 74.789062 L 34.230469 74.789062 C 35.023438 74.789062 35.675781 74.136719 35.675781 73.34375 C 35.675781 72.546875 35.023438 71.898438 34.230469 71.898438 Z M 34.230469 71.898438 " fill-opacity="1" fill-rule="nonzero"/><g clip-path="url(#9498e11772)"><path fill="#000000" d="M 24.761719 70.089844 C 24.183594 70.886719 23.386719 71.609375 22.519531 72.113281 C 23.460938 72.546875 24.183594 73.34375 24.183594 74.355469 L 24.183594 78.402344 C 24.183594 78.835938 23.75 79.125 23.171875 79.125 L 13.628906 79.125 C 13.050781 79.125 12.617188 78.765625 12.617188 78.402344 L 12.617188 74.429688 C 12.617188 73.414062 13.269531 72.621094 14.28125 72.1875 C 13.414062 71.679688 12.691406 70.957031 12.039062 70.164062 C 10.59375 71.101562 9.726562 72.621094 9.726562 74.355469 L 9.726562 78.402344 C 9.726562 80.425781 11.460938 82.019531 13.628906 82.019531 L 23.171875 82.019531 C 25.339844 82.019531 27.074219 80.355469 27.074219 78.402344 L 27.074219 74.429688 C 27.074219 72.621094 26.207031 71.101562 24.761719 70.089844 Z M 24.761719 70.089844 " fill-opacity="1" fill-rule="nonzero"/></g><path fill="#000000" d="M 34.085938 40.453125 C 33.507812 41.25 32.710938 41.972656 31.84375 42.476562 C 32.785156 42.910156 33.507812 43.707031 33.507812 44.71875 L 33.507812 48.765625 C 33.507812 49.199219 33.074219 49.488281 32.496094 49.488281 L 22.953125 49.488281 C 22.449219 49.488281 21.941406 49.128906 21.941406 48.765625 L 21.941406 44.789062 C 21.941406 43.777344 22.59375 42.984375 23.605469 42.550781 C 22.738281 42.042969 22.015625 41.320312 21.363281 40.527344 C 19.988281 41.539062 19.050781 43.054688 19.050781 44.789062 L 19.050781 48.765625 C 19.050781 50.789062 20.785156 52.378906 22.953125 52.378906 L 32.496094 52.378906 C 34.664062 52.378906 36.398438 50.71875 36.398438 48.765625 L 36.398438 44.789062 C 36.398438 42.984375 35.457031 41.464844 34.085938 40.453125 Z M 34.085938 40.453125 " fill-opacity="1" fill-rule="nonzero"/><path fill="#000000" d="M 18.398438 70.453125 C 21.21875 70.453125 23.460938 68.210938 23.460938 65.390625 C 23.460938 62.574219 21.21875 60.332031 18.398438 60.332031 C 15.582031 60.332031 13.339844 62.574219 13.339844 65.390625 C 13.339844 68.210938 15.582031 70.453125 18.398438 70.453125 Z M 18.398438 63.222656 C 19.628906 63.222656 20.570312 64.164062 20.570312 65.390625 C 20.570312 66.621094 19.628906 67.5625 18.398438 67.5625 C 17.171875 67.5625 16.230469 66.621094 16.230469 65.390625 C 16.230469 64.164062 17.171875 63.222656 18.398438 63.222656 Z M 18.398438 63.222656 " fill-opacity="1" fill-rule="nonzero"/><path fill="#000000" d="M 27.722656 40.816406 C 30.542969 40.816406 32.785156 38.574219 32.785156 35.753906 C 32.785156 32.9375 30.542969 30.695312 27.722656 30.695312 C 24.90625 30.695312 22.664062 32.9375 22.664062 35.753906 C 22.664062 38.574219 24.90625 40.816406 27.722656 40.816406 Z M 27.722656 33.585938 C 28.953125 33.585938 29.890625 34.527344 29.890625 35.753906 C 29.890625 36.984375 28.953125 37.921875 27.722656 37.921875 C 26.496094 37.921875 25.554688 36.984375 25.554688 35.753906 C 25.554688 34.527344 26.496094 33.585938 27.722656 33.585938 Z M 27.722656 33.585938 " fill-opacity="1" fill-rule="nonzero"/><path fill="#000000" d="M 72.464844 53.175781 L 69.933594 55.488281 C 69.355469 56.066406 69.285156 56.933594 69.863281 57.511719 C 70.367188 58.089844 71.308594 58.089844 71.886719 57.585938 L 74.417969 55.273438 C 74.996094 54.695312 75.066406 53.828125 74.488281 53.25 C 73.984375 52.671875 73.042969 52.671875 72.464844 53.175781 Z M 72.464844 53.175781 " fill-opacity="1" fill-rule="nonzero"/><path fill="#000000" d="M 80.632812 71.898438 L 77.742188 71.898438 C 76.945312 71.898438 76.296875 72.546875 76.296875 73.34375 C 76.296875 74.136719 76.945312 74.789062 77.742188 74.789062 L 80.632812 74.789062 C 81.425781 74.789062 82.078125 74.136719 82.078125 73.34375 C 82.078125 72.546875 81.425781 71.898438 80.632812 71.898438 Z M 80.632812 71.898438 " fill-opacity="1" fill-rule="nonzero"/><g clip-path="url(#ef46a8f8ea)"><path fill="#000000" d="M 99.929688 70.089844 C 99.351562 70.886719 98.558594 71.609375 97.691406 72.113281 C 98.628906 72.546875 99.351562 73.34375 99.351562 74.355469 L 99.351562 78.402344 C 99.351562 78.835938 98.917969 79.125 98.339844 79.125 L 88.800781 79.125 C 88.292969 79.125 87.789062 78.765625 87.789062 78.402344 L 87.789062 74.429688 C 87.789062 73.414062 88.4375 72.621094 89.449219 72.1875 C 88.582031 71.679688 87.859375 70.957031 87.210938 70.164062 C 85.835938 71.175781 84.898438 72.691406 84.898438 74.429688 L 84.898438 78.402344 C 84.898438 80.425781 86.632812 82.019531 88.800781 82.019531 L 98.339844 82.019531 C 100.507812 82.019531 102.242188 80.355469 102.242188 78.402344 L 102.242188 74.429688 C 102.242188 72.621094 101.375 71.101562 99.929688 70.089844 Z M 99.929688 70.089844 " fill-opacity="1" fill-rule="nonzero"/></g><path fill="#000000" d="M 79.476562 52.378906 L 89.015625 52.378906 C 91.183594 52.378906 92.921875 50.71875 92.921875 48.765625 L 92.921875 44.789062 C 92.921875 43.054688 92.050781 41.464844 90.605469 40.527344 C 90.027344 41.320312 89.234375 42.042969 88.367188 42.550781 C 89.304688 42.984375 90.027344 43.777344 90.027344 44.789062 L 90.027344 48.765625 C 90.027344 49.199219 89.59375 49.488281 89.015625 49.488281 L 79.476562 49.488281 C 78.96875 49.488281 78.464844 49.128906 78.464844 48.765625 L 78.464844 44.789062 C 78.464844 43.777344 79.113281 42.984375 80.125 42.550781 C 79.257812 42.042969 78.535156 41.320312 77.886719 40.527344 C 76.511719 41.539062 75.574219 43.054688 75.574219 44.789062 L 75.574219 48.765625 C 75.574219 50.71875 77.308594 52.378906 79.476562 52.378906 Z M 79.476562 52.378906 " fill-opacity="1" fill-rule="nonzero"/><path fill="#000000" d="M 88.511719 65.390625 C 88.511719 68.210938 90.75 70.453125 93.570312 70.453125 C 96.390625 70.453125 98.628906 68.210938 98.628906 65.390625 C 98.628906 62.574219 96.390625 60.332031 93.570312 60.332031 C 90.75 60.332031 88.511719 62.574219 88.511719 65.390625 Z M 93.570312 63.222656 C 94.800781 63.222656 95.738281 64.164062 95.738281 65.390625 C 95.738281 66.621094 94.800781 67.5625 93.570312 67.5625 C 92.339844 67.5625 91.402344 66.621094 91.402344 65.390625 C 91.402344 64.164062 92.339844 63.222656 93.570312 63.222656 Z M 93.570312 63.222656 " fill-opacity="1" fill-rule="nonzero"/><path fill="#000000" d="M 84.246094 40.816406 C 87.066406 40.816406 89.304688 38.574219 89.304688 35.753906 C 89.304688 32.9375 87.066406 30.695312 84.246094 30.695312 C 81.425781 30.695312 79.1875 32.9375 79.1875 35.753906 C 79.1875 38.574219 81.425781 40.816406 84.246094 40.816406 Z M 84.246094 33.585938 C 85.476562 33.585938 86.414062 34.527344 86.414062 35.753906 C 86.414062 36.984375 85.476562 37.921875 84.246094 37.921875 C 83.019531 37.921875 82.078125 36.984375 82.078125 35.753906 C 82.078125 34.527344 83.089844 33.585938 84.246094 33.585938 Z M 84.246094 33.585938 " fill-opacity="1" fill-rule="nonzero"/></svg>