<svg xmlns="http://www.w3.org/2000/svg" xmlns:xlink="http://www.w3.org/1999/xlink" width="150" zoomAndPan="magnify" viewBox="0 0 112.5 112.499997" height="150" preserveAspectRatio="xMidYMid meet" version="1.0"><defs><clipPath id="3baffb106f"><path d="M 16 71 L 46 71 L 46 101.175781 L 16 101.175781 Z M 16 71 " clip-rule="nonzero"/></clipPath><clipPath id="8a4f8dfdb8"><path d="M 87 27 L 96.257812 27 L 96.257812 37 L 87 37 Z M 87 27 " clip-rule="nonzero"/></clipPath></defs><path fill="#000000" d="M 55.332031 44.773438 C 55.078125 44.773438 54.824219 44.652344 54.667969 44.429688 C 54.40625 44.058594 54.488281 43.546875 54.855469 43.285156 L 61.65625 38.398438 C 62.023438 38.136719 62.535156 38.21875 62.796875 38.589844 C 63.058594 38.960938 62.972656 39.472656 62.605469 39.734375 L 55.804688 44.621094 C 55.660156 44.722656 55.496094 44.773438 55.332031 44.773438 Z M 55.332031 44.773438 " fill-opacity="1" fill-rule="nonzero"/><path fill="#000000" d="M 81.964844 43.164062 C 81.761719 43.164062 81.554688 43.082031 81.394531 42.925781 C 81.074219 42.609375 81.066406 42.089844 81.382812 41.765625 L 88.578125 34.402344 C 88.894531 34.078125 89.410156 34.070312 89.734375 34.390625 C 90.054688 34.707031 90.058594 35.230469 89.742188 35.550781 L 82.546875 42.917969 C 82.390625 43.082031 82.175781 43.164062 81.964844 43.164062 Z M 81.964844 43.164062 " fill-opacity="1" fill-rule="nonzero"/><path fill="#000000" d="M 76.152344 44.003906 C 76.015625 44.003906 75.878906 43.972656 75.75 43.898438 L 67.941406 39.460938 C 67.546875 39.238281 67.410156 38.738281 67.628906 38.34375 C 67.851562 37.945312 68.347656 37.808594 68.742188 38.03125 L 76.550781 42.46875 C 76.945312 42.691406 77.085938 43.191406 76.863281 43.585938 C 76.710938 43.855469 76.433594 44.003906 76.152344 44.003906 Z M 76.152344 44.003906 " fill-opacity="1" fill-rule="nonzero"/><path fill="#000000" d="M 65.734375 79.992188 C 59.792969 79.992188 53.941406 78.117188 49.011719 74.476562 C 48.542969 74.121094 48.070312 73.753906 47.636719 73.386719 C 46.851562 72.730469 46.25 72.179688 45.675781 71.601562 C 45.101562 71.023438 44.53125 70.390625 43.886719 69.617188 C 43.503906 69.160156 43.15625 68.699219 42.8125 68.242188 C 34.574219 56.941406 35.792969 40.957031 45.640625 31.046875 C 53.558594 23.078125 65.457031 20.53125 75.953125 24.554688 C 76.375 24.71875 76.585938 25.191406 76.425781 25.617188 C 76.265625 26.039062 75.792969 26.25 75.375 26.089844 C 65.472656 22.296875 54.257812 24.699219 46.796875 32.207031 C 37.511719 41.546875 36.359375 56.617188 44.117188 67.257812 C 44.441406 67.683594 44.769531 68.121094 45.136719 68.558594 C 45.75 69.296875 46.289062 69.894531 46.832031 70.441406 C 47.367188 70.980469 47.941406 71.503906 48.683594 72.128906 C 49.097656 72.476562 49.550781 72.828125 49.988281 73.160156 C 57.308594 78.5625 66.804688 79.835938 75.375 76.554688 C 75.796875 76.394531 76.269531 76.605469 76.425781 77.03125 C 76.585938 77.457031 76.375 77.929688 75.953125 78.089844 C 72.625 79.363281 69.164062 79.992188 65.734375 79.992188 Z M 65.734375 79.992188 " fill-opacity="1" fill-rule="nonzero"/><path fill="#000000" d="M 42.121094 79.652344 C 41.914062 79.652344 41.703125 79.574219 41.542969 79.414062 L 37.894531 75.742188 C 37.742188 75.589844 37.65625 75.378906 37.65625 75.164062 C 37.65625 74.945312 37.742188 74.734375 37.894531 74.582031 L 43.933594 68.507812 C 44.09375 68.34375 44.324219 68.25 44.546875 68.265625 C 44.773438 68.277344 44.988281 68.382812 45.136719 68.558594 C 45.75 69.296875 46.289062 69.894531 46.832031 70.441406 C 47.367188 70.980469 47.941406 71.503906 48.683594 72.128906 C 48.859375 72.277344 48.964844 72.492188 48.972656 72.722656 C 48.984375 72.953125 48.898438 73.175781 48.734375 73.339844 L 42.699219 79.414062 C 42.539062 79.574219 42.328125 79.652344 42.121094 79.652344 Z M 39.625 75.164062 L 42.121094 77.671875 L 46.957031 72.804688 C 46.484375 72.386719 46.074219 72 45.675781 71.601562 C 45.277344 71.199219 44.882812 70.777344 44.464844 70.296875 Z M 39.625 75.164062 " fill-opacity="1" fill-rule="nonzero"/><g clip-path="url(#3baffb106f)"><path fill="#000000" d="M 23.078125 101.171875 C 21.335938 101.171875 19.59375 100.503906 18.265625 99.167969 C 15.609375 96.496094 15.609375 92.148438 18.265625 89.476562 L 35.484375 72.152344 C 35.800781 71.832031 36.316406 71.832031 36.636719 72.152344 L 45.113281 80.679688 C 45.429688 81.003906 45.429688 81.523438 45.113281 81.84375 L 27.894531 99.167969 C 26.566406 100.503906 24.824219 101.171875 23.078125 101.171875 Z M 36.058594 73.894531 L 19.417969 90.640625 C 17.402344 92.667969 17.402344 95.976562 19.417969 98.007812 C 21.4375 100.039062 24.722656 100.035156 26.742188 98.007812 L 43.378906 81.261719 Z M 36.058594 73.894531 " fill-opacity="1" fill-rule="nonzero"/></g><path fill="#000000" d="M 94.832031 65.457031 L 50.101562 65.457031 C 49.648438 65.457031 49.285156 65.089844 49.285156 64.636719 C 49.285156 64.183594 49.648438 63.816406 50.101562 63.816406 L 94.832031 63.816406 C 95.285156 63.816406 95.648438 64.183594 95.648438 64.636719 C 95.648438 65.089844 95.285156 65.457031 94.832031 65.457031 Z M 94.832031 65.457031 " fill-opacity="1" fill-rule="nonzero"/><path fill="#000000" d="M 54.257812 65.457031 C 53.808594 65.457031 53.441406 65.089844 53.441406 64.636719 L 53.441406 55.289062 C 53.441406 54.832031 53.808594 54.464844 54.257812 54.464844 C 54.710938 54.464844 55.074219 54.832031 55.074219 55.289062 L 55.074219 64.636719 C 55.074219 65.089844 54.710938 65.457031 54.257812 65.457031 Z M 54.257812 65.457031 " fill-opacity="1" fill-rule="nonzero"/><path fill="#000000" d="M 60.328125 65.457031 C 59.875 65.457031 59.511719 65.089844 59.511719 64.636719 L 59.511719 52.601562 C 59.511719 52.148438 59.875 51.78125 60.328125 51.78125 C 60.777344 51.78125 61.144531 52.148438 61.144531 52.601562 L 61.144531 64.636719 C 61.144531 65.089844 60.777344 65.457031 60.328125 65.457031 Z M 60.328125 65.457031 " fill-opacity="1" fill-rule="nonzero"/><path fill="#000000" d="M 66.398438 65.457031 C 65.945312 65.457031 65.582031 65.089844 65.582031 64.636719 L 65.582031 49.144531 C 65.582031 48.691406 65.945312 48.324219 66.398438 48.324219 C 66.847656 48.324219 67.214844 48.691406 67.214844 49.144531 L 67.214844 64.636719 C 67.214844 65.089844 66.847656 65.457031 66.398438 65.457031 Z M 66.398438 65.457031 " fill-opacity="1" fill-rule="nonzero"/><path fill="#000000" d="M 72.464844 65.457031 C 72.015625 65.457031 71.652344 65.089844 71.652344 64.636719 L 71.652344 55.289062 C 71.652344 54.832031 72.015625 54.464844 72.464844 54.464844 C 72.917969 54.464844 73.28125 54.832031 73.28125 55.289062 L 73.28125 64.636719 C 73.28125 65.089844 72.917969 65.457031 72.464844 65.457031 Z M 72.464844 65.457031 " fill-opacity="1" fill-rule="nonzero"/><path fill="#000000" d="M 78.535156 65.457031 C 78.085938 65.457031 77.71875 65.089844 77.71875 64.636719 L 77.71875 55.289062 C 77.71875 54.832031 78.085938 54.464844 78.535156 54.464844 C 78.988281 54.464844 79.351562 54.832031 79.351562 55.289062 L 79.351562 64.636719 C 79.351562 65.089844 78.988281 65.457031 78.535156 65.457031 Z M 78.535156 65.457031 " fill-opacity="1" fill-rule="nonzero"/><path fill="#000000" d="M 84.605469 65.457031 C 84.152344 65.457031 83.789062 65.089844 83.789062 64.636719 L 83.789062 53.222656 C 83.789062 52.765625 84.152344 52.398438 84.605469 52.398438 C 85.054688 52.398438 85.421875 52.765625 85.421875 53.222656 L 85.421875 64.636719 C 85.421875 65.089844 85.054688 65.457031 84.605469 65.457031 Z M 84.605469 65.457031 " fill-opacity="1" fill-rule="nonzero"/><path fill="#000000" d="M 90.675781 65.457031 C 90.222656 65.457031 89.859375 65.089844 89.859375 64.636719 L 89.859375 49.144531 C 89.859375 48.691406 90.222656 48.324219 90.675781 48.324219 C 91.125 48.324219 91.492188 48.691406 91.492188 49.144531 L 91.492188 64.636719 C 91.492188 65.089844 91.125 65.457031 90.675781 65.457031 Z M 90.675781 65.457031 " fill-opacity="1" fill-rule="nonzero"/><path fill="#000000" d="M 52.3125 50.660156 C 49.828125 50.660156 47.808594 48.617188 47.808594 46.109375 C 47.808594 43.601562 49.828125 41.558594 52.3125 41.558594 C 54.804688 41.558594 56.832031 43.601562 56.832031 46.109375 C 56.832031 48.617188 54.804688 50.660156 52.3125 50.660156 Z M 52.3125 43.203125 C 50.726562 43.203125 49.441406 44.507812 49.441406 46.109375 C 49.441406 47.710938 50.726562 49.015625 52.3125 49.015625 C 53.90625 49.015625 55.199219 47.710938 55.199219 46.109375 C 55.199219 44.507812 53.90625 43.203125 52.3125 43.203125 Z M 52.3125 43.203125 " fill-opacity="1" fill-rule="nonzero"/><path fill="#000000" d="M 65.132812 41.46875 C 62.648438 41.46875 60.628906 39.429688 60.628906 36.917969 C 60.628906 34.410156 62.648438 32.371094 65.132812 32.371094 C 67.625 32.371094 69.652344 34.410156 69.652344 36.917969 C 69.652344 39.429688 67.625 41.46875 65.132812 41.46875 Z M 65.132812 34.011719 C 63.546875 34.011719 62.261719 35.316406 62.261719 36.917969 C 62.261719 38.523438 63.546875 39.828125 65.132812 39.828125 C 66.722656 39.828125 68.019531 38.523438 68.019531 36.917969 C 68.019531 35.316406 66.722656 34.011719 65.132812 34.011719 Z M 65.132812 34.011719 " fill-opacity="1" fill-rule="nonzero"/><path fill="#000000" d="M 79.351562 49.539062 C 76.867188 49.539062 74.847656 47.496094 74.847656 44.988281 C 74.847656 42.480469 76.867188 40.4375 79.351562 40.4375 C 81.84375 40.4375 83.871094 42.480469 83.871094 44.988281 C 83.871094 47.496094 81.84375 49.539062 79.351562 49.539062 Z M 79.351562 42.082031 C 77.769531 42.082031 76.480469 43.382812 76.480469 44.988281 C 76.480469 46.589844 77.769531 47.894531 79.351562 47.894531 C 80.945312 47.894531 82.242188 46.589844 82.242188 44.988281 C 82.242188 43.382812 80.945312 42.082031 79.351562 42.082031 Z M 79.351562 42.082031 " fill-opacity="1" fill-rule="nonzero"/><g clip-path="url(#8a4f8dfdb8)"><path fill="#000000" d="M 91.726562 36.863281 C 89.246094 36.863281 87.226562 34.824219 87.226562 32.3125 C 87.226562 29.804688 89.246094 27.765625 91.726562 27.765625 C 94.21875 27.765625 96.25 29.804688 96.25 32.3125 C 96.25 34.824219 94.21875 36.863281 91.726562 36.863281 Z M 91.726562 29.40625 C 90.144531 29.40625 88.855469 30.710938 88.855469 32.3125 C 88.855469 33.917969 90.144531 35.222656 91.726562 35.222656 C 93.320312 35.222656 94.617188 33.917969 94.617188 32.3125 C 94.617188 30.710938 93.320312 29.40625 91.726562 29.40625 Z M 91.726562 29.40625 " fill-opacity="1" fill-rule="nonzero"/></g></svg>