<svg xmlns="http://www.w3.org/2000/svg" xmlns:xlink="http://www.w3.org/1999/xlink" width="150" zoomAndPan="magnify" viewBox="0 0 112.5 112.499997" height="150" preserveAspectRatio="xMidYMid meet" version="1.0"><defs><clipPath id="73b052a463"><path d="M 15.3125 4.683594 L 96.699219 4.683594 L 96.699219 106.980469 L 15.3125 106.980469 Z M 15.3125 4.683594 " clip-rule="nonzero"/></clipPath></defs><g clip-path="url(#73b052a463)"><path fill="#000000" d="M 82.878906 81.773438 C 83.488281 82.378906 83.488281 83.359375 82.878906 83.964844 L 70.363281 96.4375 C 69.707031 97.089844 68.628906 97.03125 68.050781 96.3125 L 63.042969 90.074219 C 62.507812 89.40625 62.613281 88.429688 63.285156 87.894531 C 63.957031 87.359375 64.933594 87.472656 65.472656 88.136719 L 69.394531 93.023438 L 80.683594 81.773438 C 81.289062 81.167969 82.273438 81.167969 82.878906 81.773438 Z M 73.953125 103.871094 C 82.070312 103.871094 88.671875 97.292969 88.671875 89.207031 C 88.671875 81.117188 82.070312 74.539062 73.953125 74.539062 C 65.839844 74.539062 59.238281 81.121094 59.238281 89.207031 C 59.238281 97.292969 65.839844 103.871094 73.953125 103.871094 Z M 45.140625 98.125 C 44.597656 98.125 44.140625 97.671875 44.140625 97.128906 L 44.140625 90.480469 L 56.179688 90.480469 C 56.375 93.25 57.210938 95.847656 58.546875 98.125 Z M 38.972656 87.203125 L 38.972656 81.214844 C 38.972656 81.121094 39.054688 81.039062 39.152344 81.039062 L 58.132812 81.039062 C 57.121094 82.972656 56.453125 85.113281 56.21875 87.378906 L 39.152344 87.378906 C 39.054688 87.378906 38.972656 87.296875 38.972656 87.203125 Z M 39.113281 71.628906 C 34.105469 67.671875 31.019531 61.910156 30.492188 55.632812 L 35.671875 55.632812 L 35.671875 57.945312 C 35.671875 60.929688 38.109375 63.359375 41.101562 63.359375 C 44.097656 63.359375 46.535156 60.929688 46.535156 57.945312 L 46.535156 55.632812 L 51.792969 55.632812 L 51.792969 62.613281 C 51.792969 63.46875 52.488281 64.164062 53.347656 64.164062 L 57.222656 64.164062 C 58.503906 64.164062 59.542969 65.199219 59.542969 66.476562 C 59.542969 67.75 58.503906 68.789062 57.222656 68.789062 L 53.347656 68.789062 C 52.488281 68.789062 51.792969 69.480469 51.792969 70.335938 L 51.792969 77.9375 L 43.53125 77.9375 C 42.753906 75.476562 41.246094 73.3125 39.113281 71.628906 Z M 49.472656 44.003906 C 48.191406 44.003906 47.148438 42.96875 47.148438 41.691406 C 47.148438 40.417969 48.191406 39.378906 49.472656 39.378906 L 53.347656 39.378906 C 54.207031 39.378906 54.902344 38.6875 54.902344 37.832031 L 54.902344 30.902344 C 66.4375 31.675781 75.664062 40.992188 76.253906 52.535156 L 71.214844 52.535156 L 71.214844 50.222656 C 71.214844 47.238281 68.777344 44.8125 65.785156 44.8125 C 62.789062 44.8125 60.355469 47.238281 60.355469 50.222656 L 60.355469 52.535156 L 54.902344 52.535156 L 54.902344 45.554688 C 54.902344 44.699219 54.207031 44.003906 53.347656 44.003906 Z M 67.585938 71.628906 C 66.867188 72.195312 66.21875 72.824219 65.640625 73.496094 C 63.539062 74.605469 61.683594 76.121094 60.183594 77.9375 L 54.902344 77.9375 L 54.902344 71.886719 L 57.222656 71.886719 C 60.21875 71.886719 62.65625 69.460938 62.65625 66.476562 C 62.65625 63.492188 60.21875 61.0625 57.222656 61.0625 L 54.902344 61.0625 L 54.902344 55.632812 L 61.910156 55.632812 C 62.769531 55.632812 63.464844 54.941406 63.464844 54.082031 L 63.464844 50.222656 C 63.464844 48.949219 64.503906 47.910156 65.785156 47.910156 C 67.066406 47.910156 68.105469 48.949219 68.105469 50.222656 L 68.105469 54.082031 C 68.105469 54.941406 68.800781 55.632812 69.660156 55.632812 L 76.207031 55.632812 C 75.679688 61.910156 72.59375 67.671875 67.585938 71.628906 Z M 73.953125 71.441406 C 73.398438 71.441406 72.84375 71.46875 72.296875 71.519531 C 76.847656 66.722656 79.390625 60.40625 79.390625 53.707031 C 79.390625 39.398438 67.710938 27.753906 53.347656 27.753906 C 52.488281 27.753906 51.792969 28.445312 51.792969 29.304688 L 51.792969 36.28125 L 49.472656 36.28125 C 46.476562 36.28125 44.042969 38.707031 44.042969 41.691406 C 44.042969 44.675781 46.476562 47.101562 49.472656 47.101562 L 51.792969 47.101562 L 51.792969 52.535156 L 44.980469 52.535156 C 44.121094 52.535156 43.425781 53.226562 43.425781 54.082031 L 43.425781 57.945312 C 43.425781 59.21875 42.386719 60.257812 41.101562 60.257812 C 39.824219 60.257812 38.78125 59.21875 38.78125 57.945312 L 38.78125 54.082031 C 38.78125 53.226562 38.085938 52.535156 37.226562 52.535156 L 28.859375 52.535156 C 27.992188 52.535156 27.292969 53.246094 27.304688 54.105469 C 27.425781 61.921875 31.023438 69.195312 37.179688 74.054688 C 38.5625 75.148438 39.578125 76.449219 40.21875 77.9375 L 39.152344 77.9375 C 37.339844 77.9375 35.859375 79.40625 35.859375 81.214844 L 35.859375 87.203125 C 35.859375 89.007812 37.339844 90.480469 39.152344 90.480469 L 41.027344 90.480469 L 41.027344 97.128906 C 41.027344 99.386719 42.875 101.226562 45.140625 101.226562 L 60.84375 101.226562 C 64.101562 104.753906 68.773438 106.972656 73.953125 106.972656 C 83.785156 106.972656 91.78125 99.003906 91.78125 89.207031 C 91.78125 79.410156 83.785156 71.441406 73.953125 71.441406 Z M 95.703125 31.507812 L 89.777344 34.914062 C 89.046875 35.335938 88.085938 35.097656 87.652344 34.347656 C 87.222656 33.605469 87.476562 32.660156 88.222656 32.230469 L 94.148438 28.820312 C 94.890625 28.390625 95.84375 28.644531 96.269531 29.386719 C 96.699219 30.128906 96.445312 31.074219 95.703125 31.507812 Z M 72.582031 17.78125 L 76.003906 11.875 C 76.433594 11.132812 77.386719 10.878906 78.128906 11.308594 C 78.871094 11.738281 79.128906 12.683594 78.699219 13.425781 L 75.277344 19.332031 C 74.839844 20.082031 73.882812 20.320312 73.152344 19.898438 C 72.410156 19.46875 72.152344 18.523438 72.582031 17.78125 Z M 51.792969 13.058594 L 51.792969 6.242188 C 51.792969 5.386719 52.488281 4.691406 53.347656 4.691406 C 54.207031 4.691406 54.902344 5.386719 54.902344 6.242188 L 54.902344 13.058594 C 54.902344 13.914062 54.207031 14.609375 53.347656 14.609375 C 52.488281 14.609375 51.792969 13.914062 51.792969 13.058594 Z M 26.960938 41.703125 L 26.960938 37.84375 C 26.960938 36.984375 26.265625 36.292969 25.40625 36.292969 L 18.621094 36.292969 C 19.210938 24.746094 28.4375 15.433594 39.972656 14.660156 L 39.972656 20.039062 L 37.652344 20.039062 C 34.660156 20.039062 32.222656 22.46875 32.222656 25.453125 C 32.222656 28.433594 34.660156 30.863281 37.652344 30.863281 L 39.972656 30.863281 L 39.972656 36.292969 L 33.160156 36.292969 C 32.300781 36.292969 31.601562 36.984375 31.601562 37.84375 L 31.601562 41.703125 C 31.601562 42.980469 30.5625 44.015625 29.28125 44.015625 C 28.003906 44.015625 26.960938 42.980469 26.960938 41.703125 Z M 34.710938 41.703125 C 34.710938 44.6875 32.277344 47.117188 29.28125 47.117188 C 26.289062 47.117188 23.851562 44.6875 23.851562 41.703125 L 23.851562 39.394531 L 17.039062 39.394531 C 16.191406 39.394531 15.5 38.710938 15.484375 37.867188 C 15.304688 23.3125 27.042969 11.511719 41.527344 11.511719 C 42.386719 11.511719 43.082031 12.203125 43.082031 13.058594 L 43.082031 21.589844 C 43.082031 22.445312 42.386719 23.136719 41.527344 23.136719 L 37.652344 23.136719 C 36.375 23.136719 35.332031 24.175781 35.332031 25.453125 C 35.332031 26.726562 36.375 27.761719 37.652344 27.761719 L 41.527344 27.761719 C 42.386719 27.761719 43.082031 28.457031 43.082031 29.3125 L 43.082031 37.84375 C 43.082031 38.699219 42.386719 39.390625 41.527344 39.390625 L 34.710938 39.390625 Z M 34.710938 41.703125 " fill-opacity="1" fill-rule="evenodd"/></g></svg>