<svg xmlns="http://www.w3.org/2000/svg" xmlns:xlink="http://www.w3.org/1999/xlink" width="150" zoomAndPan="magnify" viewBox="0 0 112.5 112.499997" height="150" preserveAspectRatio="xMidYMid meet" version="1.0"><defs><clipPath id="e06a045c1c"><path d="M 14.953125 28 L 97.089844 28 L 97.089844 98 L 14.953125 98 Z M 14.953125 28 " clip-rule="nonzero"/></clipPath></defs><g clip-path="url(#e06a045c1c)"><path fill="#010101" d="M 95.722656 82.988281 L 93.363281 82.988281 L 93.363281 35.070312 C 93.363281 31.605469 90.503906 28.757812 87.023438 28.757812 L 86.777344 28.757812 C 86.03125 28.757812 85.535156 29.253906 85.535156 29.996094 C 85.535156 30.738281 86.03125 31.234375 86.777344 31.234375 L 87.023438 31.234375 C 89.136719 31.234375 90.875 32.96875 90.875 35.070312 L 90.875 72.710938 L 21.042969 72.710938 L 21.042969 35.070312 C 21.042969 32.96875 22.78125 31.234375 24.894531 31.234375 L 49 31.234375 C 49.746094 31.234375 50.242188 30.738281 50.242188 29.996094 C 50.242188 29.253906 49.746094 28.757812 49 28.757812 L 24.894531 28.757812 C 21.414062 28.757812 18.558594 31.605469 18.558594 35.070312 L 18.558594 82.988281 L 16.195312 82.988281 C 15.453125 82.988281 14.953125 83.480469 14.953125 84.226562 L 14.953125 86.328125 C 14.953125 92.644531 20.171875 97.84375 26.511719 97.84375 L 85.535156 97.84375 C 91.871094 97.84375 97.089844 92.644531 97.089844 86.328125 L 97.089844 84.226562 C 96.964844 83.605469 96.46875 82.988281 95.722656 82.988281 Z M 21.042969 75.3125 L 90.875 75.3125 L 90.875 82.988281 L 21.042969 82.988281 Z M 94.480469 86.328125 C 94.480469 91.28125 90.378906 95.367188 85.410156 95.367188 L 26.511719 95.367188 C 21.539062 95.367188 17.441406 91.28125 17.441406 86.328125 L 17.441406 85.464844 C 17.6875 85.464844 94.105469 85.464844 94.480469 85.464844 Z M 94.480469 86.328125 " fill-opacity="1" fill-rule="nonzero"/></g><path fill="#010101" d="M 62.917969 77.664062 L 49 77.664062 C 48.253906 77.664062 47.757812 78.160156 47.757812 78.902344 C 47.757812 79.644531 48.253906 80.140625 49 80.140625 L 63.042969 80.140625 C 63.789062 80.140625 64.285156 79.644531 64.285156 78.902344 C 64.160156 78.28125 63.664062 77.664062 62.917969 77.664062 Z M 62.917969 77.664062 " fill-opacity="1" fill-rule="nonzero"/><path fill="#010101" d="M 41.671875 47.082031 C 41.917969 46.710938 41.792969 46.214844 41.546875 45.84375 L 33.59375 34.328125 C 33.34375 33.957031 32.972656 33.835938 32.597656 33.835938 C 32.226562 33.835938 31.855469 34.082031 31.605469 34.328125 L 23.777344 45.84375 C 23.527344 46.214844 23.527344 46.710938 23.652344 47.082031 C 23.902344 47.453125 24.273438 47.699219 24.769531 47.699219 L 28 47.699219 L 28.125 58.597656 C 28.125 59.214844 28.746094 59.835938 29.367188 59.835938 L 36.328125 59.835938 C 36.699219 59.835938 36.949219 59.710938 37.195312 59.464844 C 37.445312 59.214844 37.570312 58.96875 37.570312 58.597656 L 37.445312 47.699219 L 40.675781 47.699219 C 41.046875 47.699219 41.421875 47.453125 41.671875 47.082031 Z M 36.078125 45.226562 C 35.707031 45.226562 35.457031 45.347656 35.207031 45.597656 C 35.085938 45.84375 34.835938 46.214844 34.835938 46.460938 L 34.960938 57.359375 L 30.488281 57.359375 L 30.363281 46.460938 C 30.363281 45.71875 29.742188 45.226562 29.121094 45.226562 L 27.007812 45.226562 L 32.476562 37.175781 L 38.066406 45.226562 Z M 36.078125 45.226562 " fill-opacity="1" fill-rule="nonzero"/><path fill="#010101" d="M 47.632812 69.367188 C 47.882812 69.738281 48.253906 69.863281 48.628906 69.863281 C 49 69.863281 49.375 69.617188 49.621094 69.367188 L 57.449219 57.851562 C 57.699219 57.480469 57.699219 56.988281 57.574219 56.617188 C 57.328125 56.242188 56.828125 55.996094 56.457031 55.996094 L 53.226562 55.996094 L 53.101562 45.101562 C 53.101562 44.480469 52.480469 43.863281 51.859375 43.863281 L 44.902344 43.863281 C 44.527344 43.863281 44.28125 43.988281 44.03125 44.234375 C 43.78125 44.480469 43.65625 44.730469 43.65625 45.101562 L 43.78125 55.996094 L 40.550781 55.996094 C 40.054688 55.996094 39.683594 56.242188 39.433594 56.617188 C 39.183594 56.988281 39.308594 57.480469 39.558594 57.851562 Z M 45.148438 58.472656 C 45.523438 58.472656 45.769531 58.347656 46.019531 58.101562 C 46.269531 57.851562 46.390625 57.605469 46.390625 57.234375 L 46.269531 46.339844 L 50.742188 46.339844 L 50.863281 57.234375 C 50.863281 57.976562 51.488281 58.472656 52.109375 58.472656 L 54.21875 58.472656 L 48.753906 66.519531 L 43.160156 58.472656 Z M 45.148438 58.472656 " fill-opacity="1" fill-rule="nonzero"/><path fill="#010101" d="M 52.730469 39.28125 C 56.207031 47.082031 65.15625 51.292969 73.605469 48.445312 L 75.09375 51.910156 L 72.363281 53.023438 C 72.113281 53.148438 71.863281 53.394531 71.742188 53.769531 C 71.617188 54.015625 71.617188 54.386719 71.742188 54.757812 L 77.332031 67.511719 C 78.574219 70.234375 81.679688 71.472656 84.414062 70.359375 C 87.148438 69.242188 88.390625 66.023438 87.273438 63.300781 L 81.679688 50.671875 C 81.433594 50.054688 80.6875 49.804688 80.066406 50.054688 L 77.332031 50.796875 L 75.839844 47.453125 C 83.792969 43.367188 86.898438 33.957031 83.421875 26.15625 C 79.691406 17.738281 69.875 13.898438 61.304688 17.492188 C 52.730469 21.207031 49 30.988281 52.730469 39.28125 Z M 85.035156 64.042969 C 85.65625 65.53125 85.035156 67.261719 83.546875 67.882812 C 82.054688 68.5 80.316406 67.757812 79.691406 66.394531 L 74.597656 54.757812 C 75.46875 54.386719 74.972656 54.632812 79.941406 52.53125 Z M 73.730469 45.71875 C 66.523438 48.816406 58.070312 45.472656 54.964844 38.292969 C 54.34375 36.929688 53.972656 35.445312 53.847656 33.957031 L 58.445312 33.957031 C 58.941406 33.957031 59.316406 33.710938 59.5625 33.339844 L 62.667969 27.394531 L 66.894531 40.644531 C 67.019531 41.140625 67.390625 41.386719 67.886719 41.511719 C 67.886719 41.511719 68.011719 41.511719 68.011719 41.511719 C 68.386719 41.511719 68.882812 41.261719 69.132812 40.890625 L 73.605469 33.460938 L 82.300781 33.460938 C 82.054688 38.785156 78.824219 43.492188 73.730469 45.71875 Z M 62.421875 19.71875 C 69.628906 16.625 78.078125 19.96875 81.183594 27.148438 C 81.679688 28.386719 82.054688 29.625 82.300781 30.988281 L 72.984375 30.988281 C 72.484375 30.988281 72.113281 31.234375 71.863281 31.605469 L 68.386719 37.300781 L 64.160156 23.804688 C 64.035156 23.308594 63.539062 22.9375 63.042969 22.9375 C 62.546875 22.9375 62.046875 23.1875 61.800781 23.558594 L 57.574219 31.480469 L 53.722656 31.480469 C 54.21875 26.527344 57.328125 21.949219 62.421875 19.71875 Z M 62.421875 19.71875 " fill-opacity="1" fill-rule="nonzero"/></svg>