<svg xmlns="http://www.w3.org/2000/svg" xmlns:xlink="http://www.w3.org/1999/xlink" width="300" zoomAndPan="magnify" viewBox="0 0 224.87999 225" height="300" preserveAspectRatio="xMidYMid meet" version="1.0"><defs><clipPath id="8465817c5b"><path d="M 7.960938 14.898438 L 217 14.898438 L 217 210.101562 L 7.960938 210.101562 Z M 7.960938 14.898438 " clip-rule="nonzero"/></clipPath><clipPath id="05d36d4bd2"><path d="M 112.441406 14.898438 C 54.738281 14.898438 7.960938 58.597656 7.960938 112.5 C 7.960938 166.402344 54.738281 210.101562 112.441406 210.101562 C 170.140625 210.101562 216.917969 166.402344 216.917969 112.5 C 216.917969 58.597656 170.140625 14.898438 112.441406 14.898438 Z M 112.441406 14.898438 " clip-rule="nonzero"/></clipPath><clipPath id="fb83d84d77"><path d="M 11.265625 18.820312 L 212 18.820312 L 212 206.179688 L 11.265625 206.179688 Z M 11.265625 18.820312 " clip-rule="nonzero"/></clipPath><clipPath id="a0ceb49df6"><path d="M 111.550781 18.820312 C 56.164062 18.820312 11.265625 60.761719 11.265625 112.5 C 11.265625 164.238281 56.164062 206.179688 111.550781 206.179688 C 166.933594 206.179688 211.832031 164.238281 211.832031 112.5 C 211.832031 60.761719 166.933594 18.820312 111.550781 18.820312 Z M 111.550781 18.820312 " clip-rule="nonzero"/></clipPath><clipPath id="74adf451db"><path d="M 11.265625 23.917969 L 184.464844 23.917969 L 184.464844 201.171875 L 11.265625 201.171875 Z M 11.265625 23.917969 " clip-rule="nonzero"/></clipPath><clipPath id="a6525ae02f"><path d="M 97.867188 23.917969 C 50.039062 23.917969 11.265625 63.578125 11.265625 112.5 C 11.265625 161.421875 50.039062 201.082031 97.867188 201.082031 C 145.691406 201.082031 184.464844 161.421875 184.464844 112.5 C 184.464844 63.578125 145.691406 23.917969 97.867188 23.917969 Z M 97.867188 23.917969 " clip-rule="nonzero"/></clipPath></defs><g clip-path="url(#8465817c5b)"><g clip-path="url(#05d36d4bd2)"><path fill="#ffffff" d="M 7.960938 14.898438 L 216.886719 14.898438 L 216.886719 210.101562 L 7.960938 210.101562 Z M 7.960938 14.898438 " fill-opacity="1" fill-rule="nonzero"/></g></g><g clip-path="url(#fb83d84d77)"><g clip-path="url(#a0ceb49df6)"><path fill="#000000" d="M 11.265625 18.820312 L 211.800781 18.820312 L 211.800781 206.179688 L 11.265625 206.179688 Z M 11.265625 18.820312 " fill-opacity="1" fill-rule="nonzero"/></g></g><g clip-path="url(#74adf451db)"><g clip-path="url(#a6525ae02f)"><path fill="#ffde59" d="M 11.265625 23.917969 L 184.464844 23.917969 L 184.464844 201.171875 L 11.265625 201.171875 Z M 11.265625 23.917969 " fill-opacity="1" fill-rule="nonzero"/></g></g></svg>